<svg xmlns="http://www.w3.org/2000/svg" xmlns:xlink="http://www.w3.org/1999/xlink" width="100" zoomAndPan="magnify" viewBox="0 0 75 74.999997" height="100" preserveAspectRatio="xMidYMid meet" version="1.0"><defs><clipPath id="6739d47456"><path d="M 0.9375 0.9375 L 74.4375 0.9375 L 74.4375 74.4375 L 0.9375 74.4375 Z M 0.9375 0.9375 " clip-rule="nonzero"/></clipPath></defs><g clip-path="url(#6739d47456)"><path fill="#ffffff" d="M 37.6875 0.9375 C 57.972656 0.9375 74.4375 17.402344 74.4375 37.6875 C 74.4375 57.972656 57.972656 74.4375 37.6875 74.4375 C 17.402344 74.4375 0.9375 57.972656 0.9375 37.6875 C 0.9375 17.402344 17.402344 0.9375 37.6875 0.9375 Z M 37.6875 0.9375 " fill-opacity="1" fill-rule="nonzero"/></g><path fill="#ffffff" d="M 37.6875 4.613281 C 55.964844 4.613281 70.761719 19.410156 70.761719 37.6875 C 70.761719 55.964844 55.964844 70.761719 37.6875 70.761719 C 19.410156 70.761719 4.613281 55.964844 4.613281 37.6875 C 4.613281 19.410156 19.410156 4.613281 37.6875 4.613281 Z M 37.6875 4.613281 " fill-opacity="1" fill-rule="nonzero"/><path fill="#000000" d="M 17.5 35.335938 C 17.988281 34.503906 18.625 33.867188 19.460938 33.375 C 20.339844 32.738281 21.175781 32.050781 22.054688 31.414062 C 24.113281 29.847656 26.171875 28.328125 28.28125 26.761719 C 30.777344 24.898438 33.277344 22.988281 35.777344 21.125 C 37.933594 19.507812 40.089844 17.890625 42.246094 16.273438 C 43.273438 15.492188 44.351562 14.707031 45.378906 13.921875 C 45.378906 13.921875 45.429688 13.921875 45.429688 13.875 C 46.066406 13.480469 46.753906 13.238281 47.488281 13.238281 C 48.222656 13.089844 48.957031 13.089844 49.691406 13.335938 C 50.425781 13.480469 51.015625 13.824219 51.554688 14.316406 C 52.140625 14.707031 52.632812 15.195312 52.976562 15.882812 C 53.171875 16.324219 53.367188 16.765625 53.515625 17.207031 C 53.757812 18.183594 53.757812 19.164062 53.515625 20.144531 C 53.320312 20.585938 53.121094 21.027344 52.976562 21.46875 C 52.484375 22.300781 51.847656 22.9375 51.015625 23.429688 C 50.132812 24.066406 49.300781 24.75 48.417969 25.386719 C 46.359375 26.957031 44.300781 28.476562 42.195312 30.042969 C 39.695312 31.90625 37.199219 33.765625 34.699219 35.628906 C 33.570312 36.460938 32.492188 37.296875 31.367188 38.128906 C 32.199219 38.765625 33.03125 39.351562 33.816406 39.992188 C 36.316406 41.851562 38.816406 43.761719 41.3125 45.625 C 43.46875 47.242188 45.625 48.859375 47.78125 50.476562 C 48.808594 51.261719 49.886719 52.042969 50.917969 52.828125 C 50.917969 52.828125 50.964844 52.828125 50.964844 52.878906 C 51.601562 53.21875 52.140625 53.710938 52.535156 54.296875 C 53.023438 54.835938 53.367188 55.472656 53.515625 56.160156 C 53.757812 56.894531 53.757812 57.628906 53.613281 58.367188 C 53.5625 59.101562 53.367188 59.785156 52.976562 60.421875 C 52.679688 60.816406 52.386719 61.160156 52.09375 61.550781 C 51.40625 62.238281 50.574219 62.726562 49.644531 62.972656 C 49.152344 63.019531 48.664062 63.117188 48.171875 63.167969 C 47.195312 63.167969 46.261719 62.921875 45.378906 62.433594 C 44.5 61.796875 43.664062 61.109375 42.785156 60.472656 C 40.726562 58.90625 38.667969 57.386719 36.558594 55.816406 C 34.0625 53.957031 31.5625 52.042969 29.0625 50.183594 C 26.90625 48.566406 24.75 46.949219 22.59375 45.332031 C 21.566406 44.546875 20.488281 43.761719 19.460938 42.980469 C 19.460938 42.980469 19.410156 42.980469 19.410156 42.929688 C 18.578125 42.441406 17.941406 41.804688 17.449219 40.96875 C 16.960938 40.089844 16.714844 39.207031 16.714844 38.175781 C 16.714844 37.148438 17.007812 36.21875 17.5 35.335938 Z M 17.5 35.335938 " fill-opacity="1" fill-rule="nonzero"/><path fill="#000000" d="M 19.066406 36.265625 C 19.410156 35.726562 19.851562 35.285156 20.390625 34.945312 C 21.273438 34.304688 22.105469 33.621094 22.988281 32.984375 C 25.046875 31.414062 27.101562 29.898438 29.210938 28.328125 C 31.710938 26.464844 34.207031 24.554688 36.707031 22.695312 C 38.863281 21.078125 41.019531 19.460938 43.175781 17.84375 C 44.203125 17.058594 45.28125 16.273438 46.3125 15.492188 C 46.3125 15.492188 46.359375 15.492188 46.359375 15.441406 C 46.800781 15.195312 47.242188 15.050781 47.734375 15 C 48.222656 14.902344 48.710938 14.902344 49.203125 15.050781 C 49.691406 15.148438 50.085938 15.390625 50.476562 15.6875 C 50.867188 15.929688 51.210938 16.273438 51.40625 16.714844 C 51.847656 17.546875 52.09375 18.578125 51.800781 19.558594 C 51.652344 19.851562 51.554688 20.144531 51.40625 20.441406 C 51.066406 20.976562 50.625 21.417969 50.085938 21.761719 C 49.203125 22.398438 48.371094 23.085938 47.488281 23.722656 C 45.429688 25.289062 43.371094 26.808594 41.265625 28.378906 C 38.765625 30.238281 36.265625 32.152344 33.765625 34.011719 C 31.953125 35.382812 30.140625 36.757812 28.328125 38.078125 C 29.847656 39.207031 31.367188 40.382812 32.886719 41.507812 C 35.382812 43.371094 37.882812 45.28125 40.382812 47.144531 C 42.539062 48.761719 44.695312 50.378906 46.851562 51.996094 C 47.878906 52.78125 48.957031 53.5625 49.988281 54.347656 C 49.988281 54.347656 50.035156 54.347656 50.035156 54.398438 C 50.476562 54.640625 50.820312 54.933594 51.066406 55.328125 C 51.40625 55.671875 51.601562 56.113281 51.703125 56.601562 C 51.847656 57.089844 51.898438 57.582031 51.75 58.070312 C 51.75 58.5625 51.601562 59.003906 51.308594 59.445312 C 50.820312 60.226562 50.035156 60.914062 49.105469 61.109375 C 48.761719 61.160156 48.46875 61.207031 48.125 61.257812 C 47.4375 61.257812 46.851562 61.109375 46.261719 60.765625 C 45.378906 60.128906 44.546875 59.445312 43.664062 58.804688 C 41.609375 57.238281 39.550781 55.71875 37.441406 54.152344 C 34.945312 52.289062 32.445312 50.378906 29.945312 48.515625 C 27.789062 46.898438 25.632812 45.28125 23.476562 43.664062 C 22.449219 42.882812 21.371094 42.097656 20.339844 41.3125 C 20.339844 41.3125 20.292969 41.3125 20.292969 41.265625 C 19.753906 40.921875 19.3125 40.480469 18.96875 39.941406 C 18.625 39.351562 18.480469 38.765625 18.480469 38.078125 C 18.578125 37.492188 18.722656 36.855469 19.066406 36.265625 Z M 19.066406 36.265625 " fill-opacity="1" fill-rule="nonzero"/></svg>