<svg xmlns="http://www.w3.org/2000/svg" xmlns:xlink="http://www.w3.org/1999/xlink" width="1400" zoomAndPan="magnify" viewBox="0 0 1050 637.499986" height="850" preserveAspectRatio="xMidYMid meet" version="1.0"><defs><clipPath id="1034446da4"><path d="M 756.734375 336.363281 L 986.054688 336.363281 L 986.054688 565.679688 L 756.734375 565.679688 Z M 756.734375 336.363281 " clip-rule="nonzero"/></clipPath><clipPath id="6369abdac1"><path d="M 622 305 L 842 305 L 842 525 L 622 525 Z M 622 305 " clip-rule="nonzero"/></clipPath><clipPath id="3c7f9e2bc0"><path d="M 802.355469 277.035156 L 900.28125 578.53125 L 565.996094 687.105469 L 468.070312 385.609375 Z M 802.355469 277.035156 " clip-rule="nonzero"/></clipPath><clipPath id="744ed8cb3f"><path d="M 802.355469 277.035156 L 900.28125 578.53125 L 565.996094 687.105469 L 468.070312 385.609375 Z M 802.355469 277.035156 " clip-rule="nonzero"/></clipPath><clipPath id="889fbc512c"><path d="M 607 413 L 827 413 L 827 633 L 607 633 Z M 607 413 " clip-rule="nonzero"/></clipPath><clipPath id="c37b1a3a8c"><path d="M 802.355469 277.035156 L 900.28125 578.53125 L 565.996094 687.105469 L 468.070312 385.609375 Z M 802.355469 277.035156 " clip-rule="nonzero"/></clipPath><clipPath id="64d86bce9f"><path d="M 802.355469 277.035156 L 900.28125 578.53125 L 565.996094 687.105469 L 468.070312 385.609375 Z M 802.355469 277.035156 " clip-rule="nonzero"/></clipPath><clipPath id="70073cb0b4"><path d="M 502 398 L 665 398 L 665 561 L 502 561 Z M 502 398 " clip-rule="nonzero"/></clipPath><clipPath id="eab96b9d87"><path d="M 802.355469 277.035156 L 900.28125 578.53125 L 565.996094 687.105469 L 468.070312 385.609375 Z M 802.355469 277.035156 " clip-rule="nonzero"/></clipPath><clipPath id="1372e9c2f0"><path d="M 802.355469 277.035156 L 900.28125 578.53125 L 565.996094 687.105469 L 468.070312 385.609375 Z M 802.355469 277.035156 " clip-rule="nonzero"/></clipPath></defs><g clip-path="url(#1034446da4)"><path fill="#dc946d" d="M 986.054688 451.019531 C 986.054688 452.898438 986.007812 454.773438 985.917969 456.648438 C 985.824219 458.523438 985.6875 460.394531 985.503906 462.261719 C 985.320312 464.128906 985.089844 465.988281 984.816406 467.84375 C 984.539062 469.703125 984.21875 471.550781 983.851562 473.390625 C 983.484375 475.230469 983.074219 477.0625 982.621094 478.882812 C 982.164062 480.703125 981.664062 482.511719 981.117188 484.304688 C 980.574219 486.101562 979.984375 487.882812 979.351562 489.648438 C 978.722656 491.417969 978.046875 493.167969 977.328125 494.898438 C 976.609375 496.632812 975.847656 498.347656 975.046875 500.046875 C 974.246094 501.742188 973.402344 503.417969 972.515625 505.070312 C 971.632812 506.726562 970.707031 508.359375 969.742188 509.96875 C 968.777344 511.578125 967.773438 513.164062 966.730469 514.722656 C 965.6875 516.285156 964.609375 517.816406 963.492188 519.324219 C 962.375 520.832031 961.21875 522.308594 960.027344 523.761719 C 958.839844 525.210938 957.613281 526.632812 956.351562 528.023438 C 955.09375 529.414062 953.800781 530.773438 952.472656 532.097656 C 951.144531 533.425781 949.785156 534.71875 948.398438 535.980469 C 947.007812 537.238281 945.585938 538.464844 944.136719 539.65625 C 942.683594 540.84375 941.207031 542 939.699219 543.117188 C 938.191406 544.234375 936.65625 545.316406 935.097656 546.359375 C 933.535156 547.398438 931.953125 548.402344 930.34375 549.367188 C 928.734375 550.332031 927.101562 551.257812 925.445312 552.144531 C 923.789062 553.027344 922.117188 553.871094 920.417969 554.671875 C 918.722656 555.476562 917.007812 556.234375 915.273438 556.953125 C 913.539062 557.671875 911.789062 558.347656 910.023438 558.980469 C 908.257812 559.609375 906.476562 560.199219 904.679688 560.746094 C 902.882812 561.289062 901.074219 561.789062 899.253906 562.246094 C 897.433594 562.703125 895.605469 563.113281 893.765625 563.476562 C 891.925781 563.84375 890.074219 564.164062 888.21875 564.441406 C 886.363281 564.714844 884.5 564.945312 882.632812 565.128906 C 880.765625 565.3125 878.894531 565.453125 877.023438 565.542969 C 875.148438 565.636719 873.273438 565.679688 871.394531 565.679688 C 869.519531 565.679688 867.644531 565.636719 865.769531 565.542969 C 863.894531 565.453125 862.023438 565.3125 860.15625 565.128906 C 858.289062 564.945312 856.425781 564.714844 854.570312 564.441406 C 852.714844 564.164062 850.867188 563.84375 849.027344 563.476562 C 847.1875 563.113281 845.355469 562.703125 843.535156 562.246094 C 841.714844 561.789062 839.90625 561.289062 838.113281 560.746094 C 836.316406 560.199219 834.535156 559.609375 832.769531 558.980469 C 831 558.347656 829.25 557.671875 827.515625 556.953125 C 825.785156 556.234375 824.066406 555.476562 822.371094 554.671875 C 820.675781 553.871094 819 553.027344 817.34375 552.144531 C 815.691406 551.257812 814.058594 550.332031 812.449219 549.367188 C 810.839844 548.402344 809.253906 547.398438 807.695312 546.359375 C 806.132812 545.316406 804.601562 544.234375 803.09375 543.117188 C 801.585938 542 800.105469 540.84375 798.65625 539.65625 C 797.207031 538.464844 795.785156 537.238281 794.394531 535.980469 C 793.003906 534.71875 791.644531 533.425781 790.320312 532.097656 C 788.992188 530.773438 787.699219 529.414062 786.4375 528.023438 C 785.179688 526.632812 783.953125 525.210938 782.761719 523.761719 C 781.570312 522.308594 780.417969 520.832031 779.300781 519.324219 C 778.183594 517.816406 777.101562 516.285156 776.058594 514.722656 C 775.015625 513.164062 774.011719 511.578125 773.046875 509.96875 C 772.082031 508.359375 771.160156 506.726562 770.273438 505.070312 C 769.390625 503.417969 768.546875 501.742188 767.742188 500.046875 C 766.941406 498.347656 766.179688 496.632812 765.464844 494.898438 C 764.746094 493.167969 764.070312 491.417969 763.4375 489.648438 C 762.804688 487.882812 762.21875 486.101562 761.671875 484.304688 C 761.128906 482.511719 760.628906 480.703125 760.171875 478.882812 C 759.714844 477.0625 759.304688 475.230469 758.9375 473.390625 C 758.574219 471.550781 758.25 469.703125 757.976562 467.84375 C 757.699219 465.988281 757.472656 464.128906 757.289062 462.261719 C 757.105469 460.394531 756.964844 458.523438 756.875 456.648438 C 756.78125 454.773438 756.734375 452.898438 756.734375 451.019531 C 756.734375 449.144531 756.78125 447.269531 756.875 445.394531 C 756.964844 443.519531 757.105469 441.648438 757.289062 439.78125 C 757.472656 437.914062 757.699219 436.054688 757.976562 434.199219 C 758.25 432.339844 758.574219 430.492188 758.9375 428.652344 C 759.304688 426.8125 759.714844 424.980469 760.171875 423.160156 C 760.628906 421.339844 761.128906 419.53125 761.671875 417.738281 C 762.21875 415.941406 762.804688 414.160156 763.4375 412.394531 C 764.070312 410.625 764.746094 408.875 765.464844 407.144531 C 766.179688 405.410156 766.941406 403.695312 767.742188 401.996094 C 768.546875 400.300781 769.390625 398.625 770.273438 396.972656 C 771.160156 395.316406 772.082031 393.683594 773.046875 392.074219 C 774.011719 390.464844 775.015625 388.878906 776.058594 387.320312 C 777.101562 385.757812 778.183594 384.226562 779.300781 382.71875 C 780.417969 381.210938 781.570312 379.734375 782.761719 378.28125 C 783.953125 376.832031 785.179688 375.410156 786.4375 374.019531 C 787.699219 372.628906 788.992188 371.269531 790.320312 369.945312 C 791.644531 368.617188 793.003906 367.324219 794.394531 366.0625 C 795.785156 364.804688 797.207031 363.578125 798.65625 362.386719 C 800.105469 361.199219 801.585938 360.042969 803.09375 358.925781 C 804.601562 357.808594 806.132812 356.726562 807.695312 355.683594 C 809.253906 354.644531 810.839844 353.640625 812.449219 352.675781 C 814.058594 351.710938 815.691406 350.785156 817.34375 349.898438 C 819 349.015625 820.675781 348.171875 822.371094 347.371094 C 824.066406 346.566406 825.785156 345.808594 827.515625 345.089844 C 829.25 344.371094 831 343.695312 832.769531 343.0625 C 834.535156 342.433594 836.316406 341.84375 838.113281 341.296875 C 839.90625 340.753906 841.714844 340.253906 843.535156 339.796875 C 845.355469 339.339844 847.1875 338.929688 849.027344 338.566406 C 850.867188 338.199219 852.714844 337.878906 854.570312 337.601562 C 856.425781 337.328125 858.289062 337.097656 860.15625 336.914062 C 862.023438 336.730469 863.894531 336.589844 865.769531 336.5 C 867.644531 336.40625 869.519531 336.363281 871.394531 336.363281 C 873.273438 336.363281 875.148438 336.40625 877.023438 336.5 C 878.894531 336.589844 880.765625 336.730469 882.632812 336.914062 C 884.5 337.097656 886.363281 337.328125 888.21875 337.601562 C 890.074219 337.878906 891.925781 338.199219 893.765625 338.566406 C 895.605469 338.929688 897.433594 339.339844 899.253906 339.796875 C 901.074219 340.253906 902.882812 340.753906 904.679688 341.296875 C 906.476562 341.84375 908.257812 342.433594 910.023438 343.0625 C 911.789062 343.695312 913.539062 344.371094 915.273438 345.089844 C 917.007812 345.808594 918.722656 346.566406 920.417969 347.371094 C 922.117188 348.171875 923.792969 349.015625 925.445312 349.898438 C 927.101562 350.785156 928.734375 351.710938 930.34375 352.675781 C 931.953125 353.640625 933.535156 354.644531 935.097656 355.683594 C 936.65625 356.726562 938.191406 357.808594 939.699219 358.925781 C 941.207031 360.042969 942.683594 361.199219 944.136719 362.386719 C 945.585938 363.578125 947.007812 364.804688 948.398438 366.0625 C 949.785156 367.324219 951.144531 368.617188 952.472656 369.945312 C 953.800781 371.269531 955.09375 372.628906 956.351562 374.019531 C 957.613281 375.410156 958.839844 376.832031 960.027344 378.28125 C 961.21875 379.734375 962.375 381.210938 963.492188 382.71875 C 964.609375 384.226562 965.6875 385.757812 966.730469 387.320312 C 967.773438 388.878906 968.777344 390.464844 969.742188 392.074219 C 970.707031 393.683594 971.632812 395.316406 972.515625 396.972656 C 973.402344 398.625 974.246094 400.300781 975.046875 401.996094 C 975.847656 403.695312 976.609375 405.410156 977.328125 407.144531 C 978.046875 408.875 978.722656 410.625 979.351562 412.394531 C 979.984375 414.160156 980.574219 415.941406 981.117188 417.738281 C 981.664062 419.53125 982.164062 421.339844 982.621094 423.160156 C 983.074219 424.980469 983.488281 426.8125 983.851562 428.652344 C 984.21875 430.492188 984.539062 432.339844 984.816406 434.199219 C 985.089844 436.054688 985.320312 437.914062 985.503906 439.78125 C 985.6875 441.648438 985.824219 443.519531 985.917969 445.394531 C 986.007812 447.269531 986.054688 449.144531 986.054688 451.019531 Z M 986.054688 451.019531 " fill-opacity="1" fill-rule="nonzero"/></g><g clip-path="url(#6369abdac1)"><g clip-path="url(#3c7f9e2bc0)"><g clip-path="url(#744ed8cb3f)"><path fill="#ffd773" d="M 765.847656 519.613281 C 764.140625 520.167969 762.421875 520.679688 760.691406 521.152344 C 758.957031 521.621094 757.214844 522.046875 755.460938 522.433594 C 753.710938 522.816406 751.949219 523.15625 750.179688 523.457031 C 748.410156 523.753906 746.632812 524.007812 744.851562 524.21875 C 743.070312 524.429688 741.28125 524.597656 739.492188 524.71875 C 737.703125 524.84375 735.910156 524.921875 734.113281 524.957031 C 732.320312 524.992188 730.527344 524.980469 728.734375 524.929688 C 726.9375 524.875 725.148438 524.777344 723.359375 524.636719 C 721.570312 524.496094 719.785156 524.3125 718.003906 524.082031 C 716.222656 523.855469 714.449219 523.582031 712.683594 523.265625 C 710.917969 522.949219 709.160156 522.59375 707.410156 522.191406 C 705.660156 521.789062 703.921875 521.34375 702.195312 520.855469 C 700.46875 520.367188 698.753906 519.839844 697.054688 519.265625 C 695.351562 518.695312 693.667969 518.082031 691.996094 517.429688 C 690.324219 516.773438 688.671875 516.078125 687.03125 515.34375 C 685.394531 514.609375 683.777344 513.832031 682.179688 513.015625 C 680.582031 512.203125 679.003906 511.347656 677.445312 510.457031 C 675.886719 509.5625 674.355469 508.632812 672.84375 507.664062 C 671.332031 506.699219 669.84375 505.695312 668.382812 504.652344 C 666.921875 503.613281 665.484375 502.535156 664.074219 501.425781 C 662.664062 500.3125 661.285156 499.167969 659.929688 497.988281 C 658.578125 496.808594 657.253906 495.597656 655.960938 494.355469 C 654.667969 493.109375 653.40625 491.835938 652.175781 490.527344 C 650.945312 489.222656 649.746094 487.886719 648.582031 486.523438 C 647.414062 485.15625 646.285156 483.765625 645.1875 482.34375 C 644.089844 480.921875 643.027344 479.476562 642 478.003906 C 640.976562 476.53125 639.988281 475.035156 639.035156 473.515625 C 638.082031 471.992188 637.167969 470.449219 636.289062 468.882812 C 635.414062 467.316406 634.574219 465.730469 633.777344 464.125 C 632.976562 462.515625 632.21875 460.890625 631.5 459.246094 C 630.78125 457.601562 630.101562 455.941406 629.464844 454.261719 C 628.828125 452.585938 628.230469 450.890625 627.675781 449.183594 C 627.121094 447.476562 626.609375 445.757812 626.140625 444.027344 C 625.671875 442.292969 625.242188 440.550781 624.859375 438.796875 C 624.472656 437.046875 624.132812 435.285156 623.835938 433.515625 C 623.535156 431.746094 623.28125 429.96875 623.070312 428.1875 C 622.859375 426.402344 622.695312 424.617188 622.570312 422.828125 C 622.449219 421.035156 622.367188 419.242188 622.332031 417.449219 C 622.296875 415.65625 622.308594 413.859375 622.359375 412.066406 C 622.414062 410.273438 622.511719 408.480469 622.652344 406.691406 C 622.792969 404.902344 622.976562 403.117188 623.207031 401.335938 C 623.433594 399.558594 623.707031 397.785156 624.023438 396.015625 C 624.335938 394.25 624.695312 392.492188 625.097656 390.742188 C 625.5 388.992188 625.945312 387.253906 626.433594 385.527344 C 626.917969 383.800781 627.449219 382.085938 628.019531 380.386719 C 628.589844 378.683594 629.203125 376.996094 629.859375 375.328125 C 630.511719 373.65625 631.207031 372 631.941406 370.363281 C 632.679688 368.726562 633.453125 367.109375 634.269531 365.511719 C 635.082031 363.910156 635.9375 362.332031 636.828125 360.777344 C 637.722656 359.21875 638.652344 357.683594 639.621094 356.171875 C 640.585938 354.660156 641.589844 353.175781 642.632812 351.710938 C 643.671875 350.25 644.75 348.816406 645.859375 347.40625 C 646.972656 345.996094 648.117188 344.613281 649.292969 343.261719 C 650.472656 341.910156 651.683594 340.585938 652.929688 339.292969 C 654.171875 338 655.449219 336.734375 656.753906 335.503906 C 658.058594 334.273438 659.394531 333.074219 660.761719 331.910156 C 662.125 330.746094 663.515625 329.613281 664.9375 328.515625 C 666.359375 327.417969 667.804688 326.359375 669.277344 325.332031 C 670.75 324.304688 672.246094 323.316406 673.765625 322.363281 C 675.289062 321.410156 676.832031 320.496094 678.398438 319.621094 C 679.960938 318.742188 681.550781 317.90625 683.15625 317.105469 C 684.761719 316.308594 686.390625 315.546875 688.03125 314.828125 C 689.675781 314.109375 691.339844 313.433594 693.015625 312.796875 C 694.695312 312.15625 696.386719 311.5625 698.09375 311.007812 C 699.800781 310.453125 701.519531 309.941406 703.25 309.472656 C 704.984375 309 706.726562 308.574219 708.476562 308.1875 C 710.230469 307.804688 711.992188 307.464844 713.761719 307.164062 C 715.53125 306.867188 717.308594 306.613281 719.089844 306.402344 C 720.871094 306.191406 722.660156 306.023438 724.449219 305.902344 C 726.238281 305.777344 728.03125 305.699219 729.824219 305.664062 C 731.621094 305.628906 733.414062 305.640625 735.207031 305.691406 C 737.003906 305.746094 738.792969 305.84375 740.582031 305.984375 C 742.371094 306.125 744.15625 306.308594 745.9375 306.539062 C 747.714844 306.765625 749.488281 307.039062 751.257812 307.355469 C 753.023438 307.671875 754.78125 308.03125 756.53125 308.429688 C 758.277344 308.832031 760.015625 309.277344 761.746094 309.765625 C 763.472656 310.253906 765.1875 310.78125 766.886719 311.355469 C 768.589844 311.925781 770.273438 312.539062 771.945312 313.191406 C 773.617188 313.847656 775.269531 314.542969 776.90625 315.277344 C 778.542969 316.011719 780.164062 316.789062 781.761719 317.605469 C 783.359375 318.417969 784.9375 319.273438 786.496094 320.164062 C 788.054688 321.058594 789.585938 321.988281 791.097656 322.957031 C 792.609375 323.921875 794.097656 324.929688 795.558594 325.96875 C 797.019531 327.007812 798.457031 328.085938 799.867188 329.195312 C 801.273438 330.308594 802.65625 331.453125 804.007812 332.632812 C 805.363281 333.8125 806.6875 335.023438 807.980469 336.265625 C 809.273438 337.511719 810.535156 338.785156 811.765625 340.09375 C 812.996094 341.398438 814.195312 342.734375 815.359375 344.097656 C 816.527344 345.464844 817.65625 346.855469 818.753906 348.277344 C 819.851562 349.699219 820.914062 351.144531 821.9375 352.617188 C 822.964844 354.089844 823.953125 355.585938 824.90625 357.109375 C 825.859375 358.628906 826.773438 360.171875 827.652344 361.738281 C 828.527344 363.304688 829.367188 364.890625 830.164062 366.5 C 830.964844 368.105469 831.722656 369.730469 832.441406 371.375 C 833.160156 373.019531 833.839844 374.679688 834.476562 376.359375 C 835.113281 378.035156 835.710938 379.730469 836.265625 381.4375 C 836.820312 383.144531 837.332031 384.863281 837.800781 386.59375 C 838.269531 388.328125 838.699219 390.070312 839.082031 391.824219 C 839.46875 393.574219 839.808594 395.335938 840.105469 397.105469 C 840.402344 398.878906 840.660156 400.652344 840.871094 402.433594 C 841.082031 404.21875 841.246094 406.003906 841.371094 407.792969 C 841.492188 409.585938 841.574219 411.378906 841.605469 413.171875 C 841.640625 414.964844 841.632812 416.761719 841.582031 418.554688 C 841.527344 420.347656 841.429688 422.140625 841.289062 423.929688 C 841.148438 425.71875 840.964844 427.503906 840.734375 429.285156 C 840.507812 431.0625 840.234375 432.835938 839.917969 434.605469 C 839.601562 436.371094 839.246094 438.128906 838.84375 439.878906 C 838.441406 441.628906 837.996094 443.367188 837.507812 445.09375 C 837.023438 446.820312 836.492188 448.535156 835.921875 450.234375 C 835.347656 451.9375 834.738281 453.625 834.082031 455.292969 C 833.429688 456.964844 832.734375 458.621094 831.996094 460.257812 C 831.261719 461.894531 830.488281 463.511719 829.671875 465.113281 C 828.859375 466.710938 828.003906 468.289062 827.113281 469.84375 C 826.21875 471.402344 825.289062 472.9375 824.320312 474.449219 C 823.355469 475.960938 822.351562 477.445312 821.308594 478.910156 C 820.269531 480.371094 819.191406 481.808594 818.082031 483.214844 C 816.96875 484.625 815.824219 486.007812 814.644531 487.359375 C 813.46875 488.710938 812.253906 490.035156 811.011719 491.328125 C 809.769531 492.625 808.492188 493.886719 807.1875 495.117188 C 805.882812 496.347656 804.546875 497.546875 803.179688 498.710938 C 801.816406 499.875 800.421875 501.007812 799.003906 502.105469 C 797.582031 503.203125 796.136719 504.261719 794.664062 505.289062 C 793.191406 506.316406 791.695312 507.304688 790.175781 508.257812 C 788.652344 509.210938 787.109375 510.125 785.542969 511 C 783.976562 511.878906 782.390625 512.714844 780.785156 513.515625 C 779.175781 514.3125 777.550781 515.074219 775.90625 515.792969 C 774.261719 516.511719 772.601562 517.1875 770.925781 517.828125 C 769.246094 518.464844 767.554688 519.058594 765.847656 519.613281 Z M 765.847656 519.613281 " fill-opacity="1" fill-rule="nonzero"/></g></g></g><g clip-path="url(#889fbc512c)"><g clip-path="url(#c37b1a3a8c)"><g clip-path="url(#64d86bce9f)"><path fill="#36558f" d="M 750.609375 627.035156 C 748.902344 627.589844 747.183594 628.101562 745.453125 628.574219 C 743.71875 629.042969 741.976562 629.46875 740.226562 629.855469 C 738.472656 630.238281 736.710938 630.578125 734.941406 630.878906 C 733.171875 631.175781 731.394531 631.429688 729.613281 631.640625 C 727.832031 631.851562 726.042969 632.019531 724.253906 632.140625 C 722.464844 632.265625 720.671875 632.34375 718.875 632.378906 C 717.082031 632.414062 715.289062 632.402344 713.496094 632.351562 C 711.699219 632.296875 709.910156 632.199219 708.121094 632.058594 C 706.332031 631.917969 704.546875 631.734375 702.765625 631.503906 C 700.988281 631.277344 699.214844 631.003906 697.445312 630.6875 C 695.679688 630.371094 693.921875 630.015625 692.171875 629.613281 C 690.425781 629.210938 688.6875 628.765625 686.957031 628.277344 C 685.230469 627.789062 683.515625 627.261719 681.816406 626.6875 C 680.113281 626.117188 678.429688 625.503906 676.757812 624.851562 C 675.085938 624.195312 673.433594 623.5 671.796875 622.765625 C 670.15625 622.03125 668.539062 621.253906 666.941406 620.441406 C 665.34375 619.625 663.765625 618.769531 662.207031 617.878906 C 660.648438 616.984375 659.117188 616.054688 657.605469 615.085938 C 656.09375 614.121094 654.605469 613.117188 653.144531 612.074219 C 651.683594 611.035156 650.246094 609.957031 648.835938 608.847656 C 647.429688 607.734375 646.046875 606.589844 644.695312 605.410156 C 643.339844 604.230469 642.015625 603.019531 640.722656 601.777344 C 639.429688 600.53125 638.167969 599.257812 636.9375 597.949219 C 635.707031 596.644531 634.507812 595.308594 633.34375 593.945312 C 632.175781 592.578125 631.046875 591.1875 629.949219 589.765625 C 628.851562 588.34375 627.789062 586.898438 626.765625 585.425781 C 625.738281 583.953125 624.75 582.457031 623.796875 580.9375 C 622.84375 579.414062 621.929688 577.871094 621.050781 576.304688 C 620.175781 574.738281 619.335938 573.152344 618.539062 571.546875 C 617.738281 569.9375 616.980469 568.3125 616.261719 566.667969 C 615.542969 565.023438 614.863281 563.363281 614.226562 561.683594 C 613.589844 560.007812 612.992188 558.316406 612.4375 556.609375 C 611.882812 554.902344 611.371094 553.179688 610.902344 551.449219 C 610.433594 549.714844 610.003906 547.972656 609.621094 546.222656 C 609.234375 544.46875 608.894531 542.707031 608.597656 540.9375 C 608.300781 539.167969 608.042969 537.390625 607.832031 535.609375 C 607.621094 533.824219 607.457031 532.039062 607.332031 530.25 C 607.210938 528.457031 607.128906 526.664062 607.09375 524.871094 C 607.058594 523.078125 607.070312 521.28125 607.121094 519.488281 C 607.175781 517.695312 607.273438 515.902344 607.414062 514.113281 C 607.554688 512.324219 607.738281 510.539062 607.96875 508.757812 C 608.195312 506.980469 608.46875 505.207031 608.785156 503.4375 C 609.097656 501.671875 609.457031 499.914062 609.859375 498.164062 C 610.261719 496.417969 610.707031 494.679688 611.195312 492.949219 C 611.679688 491.222656 612.210938 489.507812 612.78125 487.808594 C 613.355469 486.105469 613.964844 484.421875 614.621094 482.75 C 615.273438 481.078125 615.96875 479.421875 616.707031 477.785156 C 617.441406 476.148438 618.214844 474.53125 619.03125 472.933594 C 619.84375 471.332031 620.699219 469.753906 621.589844 468.199219 C 622.484375 466.640625 623.414062 465.105469 624.382812 463.59375 C 625.347656 462.082031 626.351562 460.597656 627.394531 459.132812 C 628.433594 457.671875 629.511719 456.238281 630.621094 454.828125 C 631.734375 453.417969 632.878906 452.035156 634.058594 450.683594 C 635.234375 449.332031 636.449219 448.007812 637.691406 446.714844 C 638.933594 445.421875 640.210938 444.15625 641.515625 442.925781 C 642.820312 441.695312 644.15625 440.496094 645.523438 439.332031 C 646.886719 438.167969 648.277344 437.035156 649.699219 435.9375 C 651.121094 434.839844 652.566406 433.78125 654.039062 432.753906 C 655.511719 431.726562 657.007812 430.738281 658.527344 429.785156 C 660.050781 428.832031 661.59375 427.917969 663.160156 427.042969 C 664.726562 426.164062 666.3125 425.328125 667.917969 424.527344 C 669.523438 423.730469 671.152344 422.972656 672.796875 422.25 C 674.441406 421.53125 676.101562 420.855469 677.777344 420.21875 C 679.457031 419.578125 681.148438 418.984375 682.855469 418.429688 C 684.5625 417.875 686.28125 417.363281 688.011719 416.894531 C 689.746094 416.421875 691.488281 415.996094 693.242188 415.613281 C 694.992188 415.226562 696.753906 414.886719 698.523438 414.585938 C 700.292969 414.289062 702.070312 414.035156 703.851562 413.824219 C 705.632812 413.613281 707.421875 413.449219 709.210938 413.324219 C 711 413.203125 712.792969 413.121094 714.589844 413.085938 C 716.382812 413.050781 718.175781 413.0625 719.96875 413.113281 C 721.765625 413.167969 723.554688 413.265625 725.34375 413.40625 C 727.132812 413.546875 728.917969 413.730469 730.699219 413.960938 C 732.480469 414.1875 734.25 414.460938 736.019531 414.777344 C 737.785156 415.09375 739.542969 415.453125 741.292969 415.855469 C 743.042969 416.253906 744.777344 416.699219 746.507812 417.1875 C 748.234375 417.675781 749.949219 418.203125 751.648438 418.777344 C 753.351562 419.347656 755.035156 419.960938 756.707031 420.617188 C 758.378906 421.269531 760.03125 421.964844 761.671875 422.699219 C 763.308594 423.4375 764.925781 424.210938 766.523438 425.027344 C 768.121094 425.839844 769.699219 426.695312 771.257812 427.585938 C 772.816406 428.480469 774.347656 429.410156 775.859375 430.378906 C 777.371094 431.347656 778.859375 432.351562 780.320312 433.390625 C 781.78125 434.433594 783.21875 435.507812 784.628906 436.621094 C 786.039062 437.730469 787.417969 438.875 788.769531 440.054688 C 790.125 441.234375 791.449219 442.445312 792.742188 443.691406 C 794.035156 444.933594 795.296875 446.207031 796.527344 447.515625 C 797.757812 448.820312 798.957031 450.15625 800.121094 451.523438 C 801.289062 452.886719 802.417969 454.277344 803.515625 455.699219 C 804.613281 457.121094 805.675781 458.566406 806.699219 460.039062 C 807.726562 461.511719 808.714844 463.007812 809.667969 464.53125 C 810.621094 466.050781 811.535156 467.59375 812.414062 469.160156 C 813.289062 470.726562 814.128906 472.3125 814.925781 473.921875 C 815.726562 475.527344 816.484375 477.152344 817.203125 478.796875 C 817.921875 480.441406 818.601562 482.101562 819.238281 483.78125 C 819.875 485.457031 820.472656 487.152344 821.027344 488.859375 C 821.582031 490.566406 822.09375 492.285156 822.5625 494.015625 C 823.03125 495.75 823.460938 497.492188 823.84375 499.246094 C 824.230469 500.996094 824.570312 502.757812 824.867188 504.53125 C 825.167969 506.300781 825.421875 508.074219 825.632812 509.859375 C 825.84375 511.640625 826.007812 513.425781 826.132812 515.21875 C 826.253906 517.007812 826.335938 518.800781 826.371094 520.59375 C 826.40625 522.390625 826.394531 524.183594 826.34375 525.976562 C 826.289062 527.769531 826.191406 529.5625 826.050781 531.351562 C 825.910156 533.140625 825.726562 534.925781 825.496094 536.707031 C 825.269531 538.484375 824.996094 540.257812 824.679688 542.027344 C 824.367188 543.792969 824.007812 545.550781 823.605469 547.300781 C 823.203125 549.050781 822.757812 550.789062 822.269531 552.515625 C 821.785156 554.242188 821.253906 555.957031 820.683594 557.65625 C 820.113281 559.359375 819.5 561.046875 818.84375 562.71875 C 818.191406 564.386719 817.496094 566.042969 816.761719 567.679688 C 816.023438 569.316406 815.25 570.933594 814.433594 572.535156 C 813.621094 574.132812 812.765625 575.710938 811.875 577.269531 C 810.980469 578.824219 810.050781 580.359375 809.082031 581.871094 C 808.117188 583.382812 807.113281 584.867188 806.070312 586.332031 C 805.03125 587.792969 803.953125 589.230469 802.84375 590.636719 C 801.730469 592.046875 800.585938 593.429688 799.40625 594.78125 C 798.230469 596.136719 797.019531 597.457031 795.773438 598.75 C 794.53125 600.046875 793.253906 601.308594 791.949219 602.539062 C 790.644531 603.769531 789.308594 604.96875 787.941406 606.132812 C 786.578125 607.296875 785.1875 608.429688 783.765625 609.527344 C 782.34375 610.625 780.898438 611.6875 779.425781 612.710938 C 777.953125 613.738281 776.457031 614.726562 774.9375 615.679688 C 773.414062 616.632812 771.871094 617.546875 770.304688 618.421875 C 768.742188 619.300781 767.152344 620.136719 765.546875 620.9375 C 763.941406 621.734375 762.3125 622.496094 760.667969 623.214844 C 759.027344 623.933594 757.363281 624.609375 755.6875 625.25 C 754.007812 625.886719 752.316406 626.480469 750.609375 627.035156 Z M 750.609375 627.035156 " fill-opacity="1" fill-rule="nonzero"/></g></g></g><g clip-path="url(#70073cb0b4)"><g clip-path="url(#eab96b9d87)"><g clip-path="url(#1372e9c2f0)"><path fill="#fff18f" d="M 608.28125 556.152344 C 607.027344 556.5625 605.761719 556.9375 604.488281 557.285156 C 603.210938 557.628906 601.929688 557.945312 600.640625 558.226562 C 599.351562 558.507812 598.054688 558.761719 596.753906 558.980469 C 595.453125 559.199219 594.144531 559.386719 592.835938 559.539062 C 591.523438 559.695312 590.207031 559.816406 588.890625 559.910156 C 587.574219 560 586.257812 560.058594 584.9375 560.082031 C 583.617188 560.109375 582.296875 560.101562 580.976562 560.0625 C 579.65625 560.023438 578.339844 559.953125 577.023438 559.847656 C 575.707031 559.746094 574.394531 559.609375 573.085938 559.441406 C 571.773438 559.273438 570.46875 559.074219 569.171875 558.839844 C 567.871094 558.609375 566.578125 558.34375 565.292969 558.046875 C 564.003906 557.753906 562.726562 557.425781 561.457031 557.066406 C 560.183594 556.707031 558.921875 556.320312 557.671875 555.898438 C 556.421875 555.476562 555.179688 555.027344 553.949219 554.546875 C 552.722656 554.0625 551.503906 553.550781 550.300781 553.011719 C 549.097656 552.46875 547.90625 551.898438 546.730469 551.300781 C 545.554688 550.699219 544.390625 550.074219 543.246094 549.417969 C 542.101562 548.757812 540.972656 548.074219 539.859375 547.363281 C 538.75 546.652344 537.65625 545.914062 536.578125 545.148438 C 535.503906 544.382812 534.449219 543.589844 533.410156 542.773438 C 532.375 541.953125 531.359375 541.113281 530.363281 540.246094 C 529.367188 539.375 528.394531 538.484375 527.441406 537.570312 C 526.492188 536.65625 525.5625 535.71875 524.65625 534.757812 C 523.75 533.796875 522.871094 532.8125 522.011719 531.808594 C 521.15625 530.804688 520.324219 529.78125 519.515625 528.734375 C 518.707031 527.691406 517.929688 526.625 517.171875 525.542969 C 516.417969 524.460938 515.691406 523.359375 514.988281 522.238281 C 514.289062 521.121094 513.617188 519.984375 512.972656 518.832031 C 512.328125 517.679688 511.710938 516.511719 511.121094 515.332031 C 510.535156 514.148438 509.976562 512.953125 509.445312 511.742188 C 508.917969 510.535156 508.417969 509.3125 507.949219 508.078125 C 507.480469 506.84375 507.042969 505.597656 506.636719 504.34375 C 506.226562 503.085938 505.851562 501.820312 505.503906 500.546875 C 505.160156 499.273438 504.84375 497.992188 504.5625 496.703125 C 504.277344 495.410156 504.027344 494.117188 503.808594 492.8125 C 503.589844 491.511719 503.402344 490.203125 503.246094 488.894531 C 503.09375 487.582031 502.96875 486.269531 502.878906 484.949219 C 502.789062 483.632812 502.730469 482.316406 502.703125 480.996094 C 502.679688 479.675781 502.683594 478.355469 502.722656 477.035156 C 502.761719 475.714844 502.835938 474.398438 502.9375 473.082031 C 503.042969 471.765625 503.175781 470.453125 503.34375 469.144531 C 503.515625 467.832031 503.714844 466.527344 503.945312 465.230469 C 504.179688 463.929688 504.441406 462.636719 504.738281 461.347656 C 505.035156 460.0625 505.359375 458.785156 505.71875 457.511719 C 506.078125 456.242188 506.46875 454.980469 506.886719 453.730469 C 507.308594 452.476562 507.757812 451.238281 508.238281 450.007812 C 508.722656 448.777344 509.230469 447.5625 509.773438 446.355469 C 510.3125 445.152344 510.882812 443.960938 511.484375 442.785156 C 512.082031 441.609375 512.710938 440.449219 513.367188 439.304688 C 514.023438 438.15625 514.707031 437.027344 515.421875 435.917969 C 516.132812 434.804688 516.871094 433.710938 517.636719 432.636719 C 518.402344 431.558594 519.195312 430.503906 520.011719 429.46875 C 520.828125 428.429688 521.671875 427.414062 522.539062 426.417969 C 523.40625 425.421875 524.296875 424.449219 525.210938 423.5 C 526.128906 422.546875 527.066406 421.617188 528.027344 420.710938 C 528.984375 419.808594 529.96875 418.925781 530.972656 418.066406 C 531.976562 417.210938 533 416.378906 534.046875 415.570312 C 535.089844 414.765625 536.15625 413.984375 537.238281 413.230469 C 538.320312 412.472656 539.421875 411.746094 540.539062 411.046875 C 541.660156 410.34375 542.796875 409.671875 543.945312 409.027344 C 545.097656 408.382812 546.265625 407.765625 547.449219 407.179688 C 548.628906 406.589844 549.828125 406.03125 551.035156 405.503906 C 552.246094 404.972656 553.46875 404.476562 554.703125 404.007812 C 555.9375 403.539062 557.179688 403.097656 558.4375 402.691406 C 559.691406 402.285156 560.957031 401.90625 562.230469 401.5625 C 563.503906 401.214844 564.785156 400.902344 566.078125 400.617188 C 567.367188 400.335938 568.660156 400.085938 569.964844 399.863281 C 571.265625 399.644531 572.574219 399.457031 573.882812 399.304688 C 575.195312 399.148438 576.507812 399.027344 577.824219 398.933594 C 579.144531 398.84375 580.460938 398.785156 581.78125 398.761719 C 583.101562 398.734375 584.421875 398.742188 585.742188 398.78125 C 587.058594 398.820312 588.378906 398.890625 589.695312 398.996094 C 591.011719 399.097656 592.324219 399.234375 593.632812 399.402344 C 594.941406 399.570312 596.246094 399.773438 597.546875 400.003906 C 598.847656 400.238281 600.140625 400.5 601.425781 400.796875 C 602.710938 401.09375 603.992188 401.417969 605.261719 401.777344 C 606.53125 402.136719 607.792969 402.527344 609.046875 402.945312 C 610.296875 403.367188 611.539062 403.816406 612.765625 404.300781 C 613.996094 404.78125 615.210938 405.292969 616.417969 405.832031 C 617.621094 406.375 618.8125 406.945312 619.988281 407.542969 C 621.164062 408.144531 622.324219 408.773438 623.46875 409.429688 C 624.617188 410.085938 625.746094 410.769531 626.855469 411.480469 C 627.96875 412.191406 629.0625 412.933594 630.136719 413.699219 C 631.214844 414.464844 632.269531 415.253906 633.304688 416.074219 C 634.34375 416.890625 635.359375 417.734375 636.355469 418.601562 C 637.351562 419.46875 638.324219 420.359375 639.273438 421.273438 C 640.226562 422.1875 641.15625 423.128906 642.0625 424.089844 C 642.964844 425.046875 643.847656 426.03125 644.703125 427.035156 C 645.5625 428.039062 646.394531 429.0625 647.203125 430.109375 C 648.007812 431.152344 648.789062 432.21875 649.542969 433.300781 C 650.300781 434.382812 651.027344 435.484375 651.726562 436.605469 C 652.429688 437.722656 653.101562 438.859375 653.746094 440.011719 C 654.390625 441.164062 655.007812 442.332031 655.59375 443.511719 C 656.183594 444.695312 656.742188 445.890625 657.269531 447.101562 C 657.800781 448.3125 658.296875 449.53125 658.765625 450.765625 C 659.234375 452 659.675781 453.246094 660.082031 454.503906 C 660.492188 455.757812 660.867188 457.023438 661.214844 458.296875 C 661.558594 459.570312 661.875 460.851562 662.15625 462.144531 C 662.4375 463.433594 662.691406 464.730469 662.910156 466.03125 C 663.128906 467.332031 663.316406 468.640625 663.46875 469.949219 C 663.625 471.261719 663.75 472.574219 663.839844 473.894531 C 663.929688 475.210938 663.988281 476.527344 664.011719 477.847656 C 664.039062 479.167969 664.03125 480.488281 663.992188 481.808594 C 663.953125 483.128906 663.882812 484.445312 663.78125 485.761719 C 663.675781 487.078125 663.539062 488.390625 663.371094 489.703125 C 663.203125 491.011719 663.003906 492.316406 662.769531 493.617188 C 662.539062 494.914062 662.273438 496.207031 661.980469 497.496094 C 661.683594 498.78125 661.355469 500.0625 661 501.332031 C 660.640625 502.601562 660.25 503.863281 659.832031 505.113281 C 659.410156 506.367188 658.957031 507.605469 658.476562 508.835938 C 657.996094 510.066406 657.484375 511.28125 656.945312 512.488281 C 656.402344 513.691406 655.832031 514.882812 655.234375 516.058594 C 654.632812 517.234375 654.007812 518.394531 653.347656 519.539062 C 652.691406 520.6875 652.007812 521.816406 651.296875 522.925781 C 650.585938 524.039062 649.847656 525.132812 649.082031 526.207031 C 648.316406 527.285156 647.523438 528.339844 646.707031 529.375 C 645.890625 530.414062 645.046875 531.429688 644.179688 532.425781 C 643.3125 533.421875 642.421875 534.394531 641.503906 535.34375 C 640.589844 536.296875 639.652344 537.226562 638.691406 538.132812 C 637.730469 539.035156 636.75 539.917969 635.746094 540.777344 C 634.742188 541.632812 633.714844 542.464844 632.671875 543.273438 C 631.625 544.078125 630.5625 544.859375 629.480469 545.617188 C 628.398438 546.371094 627.296875 547.097656 626.175781 547.796875 C 625.058594 548.5 623.921875 549.171875 622.769531 549.816406 C 621.617188 550.460938 620.453125 551.078125 619.269531 551.667969 C 618.085938 552.253906 616.890625 552.8125 615.679688 553.339844 C 614.472656 553.871094 613.25 554.367188 612.015625 554.839844 C 610.78125 555.308594 609.535156 555.746094 608.28125 556.152344 Z M 608.28125 556.152344 " fill-opacity="1" fill-rule="nonzero"/></g></g></g></svg>