<svg xmlns="http://www.w3.org/2000/svg" xmlns:xlink="http://www.w3.org/1999/xlink" width="1400" zoomAndPan="magnify" viewBox="0 0 1050 637.499986" height="850" preserveAspectRatio="xMidYMid meet" version="1.0"><defs><clipPath id="25fb11b9b1"><path d="M 0.410156 281.402344 L 443.992188 281.402344 L 443.992188 637 L 0.410156 637 Z M 0.410156 281.402344 " clip-rule="nonzero"/></clipPath><clipPath id="025a1f864a"><path d="M 0.410156 321.660156 L 396.160156 321.660156 L 396.160156 637 L 0.410156 637 Z M 0.410156 321.660156 " clip-rule="nonzero"/></clipPath><clipPath id="212fe73027"><path d="M 0.410156 366.871094 L 360.90625 366.871094 L 360.90625 637 L 0.410156 637 Z M 0.410156 366.871094 " clip-rule="nonzero"/></clipPath><clipPath id="c5205f3758"><path d="M 39.199219 414.585938 L 320.976562 414.585938 L 320.976562 637 L 39.199219 637 Z M 39.199219 414.585938 " clip-rule="nonzero"/></clipPath></defs><g clip-path="url(#25fb11b9b1)"><path fill="#ffd773" d="M 443.992188 538.074219 C 443.992188 542.277344 443.890625 546.472656 443.683594 550.667969 C 443.476562 554.863281 443.167969 559.054688 442.757812 563.234375 C 442.34375 567.414062 441.832031 571.582031 441.214844 575.738281 C 440.597656 579.890625 439.878906 584.03125 439.0625 588.148438 C 438.242188 592.269531 437.320312 596.367188 436.300781 600.441406 C 435.28125 604.515625 434.160156 608.5625 432.941406 612.582031 C 431.722656 616.601562 430.402344 620.589844 428.988281 624.546875 C 427.574219 628.5 426.0625 632.417969 424.453125 636.300781 C 422.847656 640.179688 421.144531 644.019531 419.351562 647.816406 C 417.554688 651.613281 415.664062 655.367188 413.683594 659.070312 C 411.707031 662.773438 409.636719 666.429688 407.476562 670.03125 C 405.316406 673.632812 403.070312 677.183594 400.734375 680.675781 C 398.402344 684.167969 395.984375 687.601562 393.480469 690.976562 C 390.980469 694.347656 388.394531 697.660156 385.730469 700.90625 C 383.066406 704.15625 380.324219 707.335938 377.503906 710.445312 C 374.679688 713.558594 371.785156 716.601562 368.816406 719.570312 C 365.84375 722.542969 362.804688 725.4375 359.691406 728.257812 C 356.578125 731.078125 353.398438 733.820312 350.152344 736.488281 C 346.90625 739.152344 343.59375 741.734375 340.21875 744.238281 C 336.847656 746.738281 333.414062 749.15625 329.917969 751.492188 C 326.425781 753.824219 322.878906 756.070312 319.277344 758.230469 C 315.671875 760.390625 312.019531 762.460938 308.316406 764.441406 C 304.609375 766.421875 300.859375 768.308594 297.0625 770.105469 C 293.265625 771.902344 289.425781 773.601562 285.542969 775.210938 C 281.664062 776.816406 277.746094 778.328125 273.789062 779.746094 C 269.835938 781.160156 265.847656 782.476562 261.828125 783.695312 C 257.808594 784.914062 253.761719 786.035156 249.6875 787.054688 C 245.609375 788.078125 241.515625 788.996094 237.394531 789.816406 C 233.273438 790.636719 229.136719 791.355469 224.980469 791.96875 C 220.824219 792.585938 216.660156 793.101562 212.476562 793.511719 C 208.296875 793.925781 204.109375 794.234375 199.914062 794.441406 C 195.71875 794.644531 191.519531 794.75 187.320312 794.75 C 183.117188 794.75 178.921875 794.644531 174.726562 794.441406 C 170.53125 794.234375 166.339844 793.925781 162.160156 793.511719 C 157.980469 793.101562 153.8125 792.585938 149.65625 791.96875 C 145.503906 791.355469 141.363281 790.636719 137.246094 789.816406 C 133.125 788.996094 129.027344 788.078125 124.953125 787.054688 C 120.878906 786.035156 116.832031 784.914062 112.8125 783.695312 C 108.792969 782.476562 104.804688 781.160156 100.847656 779.746094 C 96.894531 778.328125 92.976562 776.816406 89.09375 775.210938 C 85.214844 773.601562 81.375 771.902344 77.578125 770.105469 C 73.78125 768.308594 70.027344 766.421875 66.324219 764.441406 C 62.621094 762.460938 58.964844 760.390625 55.363281 758.230469 C 51.761719 756.070312 48.210938 753.824219 44.71875 751.492188 C 41.226562 749.15625 37.792969 746.738281 34.417969 744.238281 C 31.046875 741.734375 27.734375 739.152344 24.488281 736.488281 C 21.242188 733.820312 18.058594 731.078125 14.949219 728.257812 C 11.835938 725.4375 8.792969 722.542969 5.824219 719.570312 C 2.851562 716.601562 -0.0429688 713.558594 -2.863281 710.445312 C -5.683594 707.335938 -8.425781 704.15625 -11.09375 700.90625 C -13.757812 697.660156 -16.339844 694.347656 -18.84375 690.976562 C -21.34375 687.601562 -23.761719 684.167969 -26.097656 680.675781 C -28.429688 677.183594 -30.675781 673.632812 -32.835938 670.03125 C -34.996094 666.429688 -37.066406 662.773438 -39.046875 659.070312 C -41.027344 655.367188 -42.914062 651.613281 -44.710938 647.816406 C -46.507812 644.019531 -48.207031 640.179688 -49.816406 636.300781 C -51.421875 632.417969 -52.933594 628.5 -54.351562 624.546875 C -55.765625 620.589844 -57.082031 616.601562 -58.300781 612.582031 C -59.519531 608.5625 -60.640625 604.515625 -61.660156 600.441406 C -62.683594 596.367188 -63.601562 592.269531 -64.421875 588.148438 C -65.242188 584.03125 -65.960938 579.890625 -66.574219 575.738281 C -67.191406 571.582031 -67.707031 567.414062 -68.117188 563.234375 C -68.53125 559.054688 -68.839844 554.863281 -69.046875 550.667969 C -69.25 546.472656 -69.355469 542.277344 -69.355469 538.074219 C -69.355469 533.875 -69.25 529.675781 -69.046875 525.480469 C -68.839844 521.285156 -68.53125 517.097656 -68.117188 512.917969 C -67.707031 508.734375 -67.191406 504.570312 -66.574219 500.414062 C -65.960938 496.257812 -65.242188 492.121094 -64.421875 488 C -63.601562 483.878906 -62.683594 479.785156 -61.660156 475.707031 C -60.640625 471.632812 -59.519531 467.585938 -58.300781 463.566406 C -57.082031 459.546875 -55.765625 455.558594 -54.351562 451.605469 C -52.933594 447.648438 -51.421875 443.730469 -49.816406 439.851562 C -48.207031 435.96875 -46.507812 432.128906 -44.710938 428.332031 C -42.914062 424.535156 -41.027344 420.785156 -39.046875 417.078125 C -37.066406 413.375 -34.996094 409.722656 -32.835938 406.117188 C -30.675781 402.515625 -28.429688 398.96875 -26.097656 395.476562 C -23.761719 391.980469 -21.34375 388.546875 -18.84375 385.175781 C -16.339844 381.800781 -13.757812 378.492188 -11.09375 375.242188 C -8.425781 371.996094 -5.683594 368.816406 -2.863281 365.703125 C -0.0429688 362.589844 2.851562 359.550781 5.824219 356.578125 C 8.792969 353.609375 11.835938 350.714844 14.949219 347.890625 C 18.058594 345.070312 21.242188 342.328125 24.488281 339.664062 C 27.734375 337 31.046875 334.414062 34.417969 331.914062 C 37.792969 329.410156 41.226562 326.992188 44.71875 324.660156 C 48.210938 322.324219 51.761719 320.078125 55.363281 317.917969 C 58.964844 315.757812 62.621094 313.6875 66.324219 311.710938 C 70.027344 309.730469 73.78125 307.839844 77.578125 306.042969 C 81.375 304.25 85.214844 302.546875 89.09375 300.941406 C 92.976562 299.332031 96.894531 297.820312 100.847656 296.40625 C 104.804688 294.992188 108.792969 293.671875 112.8125 292.453125 C 116.832031 291.234375 120.878906 290.113281 124.953125 289.09375 C 129.027344 288.074219 133.125 287.152344 137.246094 286.332031 C 141.363281 285.515625 145.503906 284.796875 149.65625 284.179688 C 153.8125 283.5625 157.980469 283.050781 162.160156 282.636719 C 166.339844 282.226562 170.53125 281.917969 174.726562 281.710938 C 178.921875 281.503906 183.117188 281.402344 187.320312 281.402344 C 191.519531 281.402344 195.71875 281.503906 199.914062 281.710938 C 204.109375 281.917969 208.296875 282.226562 212.476562 282.636719 C 216.660156 283.050781 220.824219 283.5625 224.980469 284.179688 C 229.136719 284.796875 233.273438 285.515625 237.394531 286.332031 C 241.515625 287.152344 245.609375 288.074219 249.6875 289.09375 C 253.761719 290.113281 257.808594 291.234375 261.828125 292.453125 C 265.847656 293.671875 269.835938 294.992188 273.789062 296.40625 C 277.746094 297.820312 281.664062 299.332031 285.542969 300.941406 C 289.425781 302.546875 293.265625 304.25 297.0625 306.042969 C 300.859375 307.839844 304.609375 309.730469 308.316406 311.710938 C 312.019531 313.6875 315.671875 315.757812 319.277344 317.917969 C 322.878906 320.078125 326.425781 322.324219 329.917969 324.660156 C 333.414062 326.992188 336.847656 329.410156 340.21875 331.914062 C 343.59375 334.414062 346.90625 337 350.152344 339.664062 C 353.398438 342.328125 356.578125 345.070312 359.691406 347.890625 C 362.804688 350.714844 365.84375 353.609375 368.816406 356.578125 C 371.785156 359.550781 374.679688 362.589844 377.503906 365.703125 C 380.324219 368.816406 383.066406 371.996094 385.730469 375.242188 C 388.394531 378.492188 390.980469 381.800781 393.480469 385.175781 C 395.984375 388.546875 398.402344 391.980469 400.734375 395.476562 C 403.070312 398.96875 405.316406 402.515625 407.476562 406.117188 C 409.636719 409.722656 411.707031 413.375 413.683594 417.078125 C 415.664062 420.785156 417.554688 424.535156 419.351562 428.332031 C 421.144531 432.128906 422.847656 435.96875 424.453125 439.851562 C 426.0625 443.730469 427.574219 447.648438 428.988281 451.605469 C 430.402344 455.558594 431.722656 459.546875 432.941406 463.566406 C 434.160156 467.585938 435.28125 471.632812 436.300781 475.707031 C 437.320312 479.785156 438.242188 483.878906 439.0625 488 C 439.878906 492.121094 440.597656 496.257812 441.214844 500.414062 C 441.832031 504.570312 442.34375 508.734375 442.757812 512.917969 C 443.167969 517.097656 443.476562 521.285156 443.683594 525.480469 C 443.890625 529.675781 443.992188 533.875 443.992188 538.074219 Z M 443.992188 538.074219 " fill-opacity="1" fill-rule="nonzero"/></g><g clip-path="url(#025a1f864a)"><path fill="#bf7143" d="M 396.160156 537.867188 C 396.160156 541.40625 396.074219 544.941406 395.898438 548.476562 C 395.726562 552.011719 395.464844 555.539062 395.117188 559.058594 C 394.773438 562.582031 394.339844 566.089844 393.820312 569.589844 C 393.300781 573.089844 392.695312 576.578125 392.003906 580.046875 C 391.316406 583.515625 390.539062 586.96875 389.679688 590.402344 C 388.820312 593.832031 387.875 597.242188 386.851562 600.628906 C 385.824219 604.015625 384.714844 607.371094 383.519531 610.703125 C 382.328125 614.035156 381.054688 617.335938 379.703125 620.605469 C 378.347656 623.875 376.914062 627.109375 375.402344 630.308594 C 373.886719 633.503906 372.296875 636.664062 370.628906 639.785156 C 368.960938 642.90625 367.21875 645.984375 365.398438 649.019531 C 363.582031 652.054688 361.6875 655.042969 359.722656 657.984375 C 357.757812 660.925781 355.71875 663.820312 353.613281 666.660156 C 351.503906 669.503906 349.328125 672.292969 347.082031 675.027344 C 344.839844 677.761719 342.527344 680.441406 340.152344 683.0625 C 337.777344 685.683594 335.335938 688.246094 332.835938 690.746094 C 330.332031 693.25 327.769531 695.6875 325.148438 698.066406 C 322.527344 700.441406 319.847656 702.75 317.113281 704.996094 C 314.378906 707.242188 311.589844 709.417969 308.746094 711.523438 C 305.90625 713.632812 303.011719 715.667969 300.070312 717.636719 C 297.128906 719.601562 294.140625 721.492188 291.105469 723.3125 C 288.070312 725.132812 284.992188 726.875 281.871094 728.542969 C 278.753906 730.210938 275.59375 731.800781 272.394531 733.3125 C 269.195312 734.828125 265.960938 736.261719 262.691406 737.613281 C 259.421875 738.96875 256.121094 740.242188 252.792969 741.433594 C 249.460938 742.625 246.101562 743.734375 242.714844 744.761719 C 239.328125 745.789062 235.921875 746.734375 232.488281 747.59375 C 229.054688 748.453125 225.605469 749.226562 222.132812 749.917969 C 218.664062 750.609375 215.179688 751.214844 211.679688 751.730469 C 208.179688 752.25 204.667969 752.683594 201.144531 753.03125 C 197.625 753.378906 194.097656 753.636719 190.5625 753.8125 C 187.027344 753.984375 183.492188 754.074219 179.953125 754.074219 C 176.414062 754.074219 172.878906 753.984375 169.34375 753.8125 C 165.8125 753.636719 162.285156 753.378906 158.761719 753.03125 C 155.242188 752.683594 151.730469 752.25 148.230469 751.730469 C 144.730469 751.214844 141.246094 750.609375 137.773438 749.917969 C 134.304688 749.226562 130.851562 748.453125 127.421875 747.59375 C 123.988281 746.734375 120.578125 745.789062 117.191406 744.761719 C 113.808594 743.734375 110.449219 742.625 107.117188 741.433594 C 103.785156 740.242188 100.484375 738.96875 97.214844 737.613281 C 93.945312 736.261719 90.714844 734.828125 87.515625 733.3125 C 84.316406 731.800781 81.15625 730.210938 78.035156 728.542969 C 74.914062 726.875 71.835938 725.132812 68.800781 723.3125 C 65.765625 721.492188 62.777344 719.601562 59.835938 717.636719 C 56.894531 715.667969 54.003906 713.632812 51.160156 711.523438 C 48.320312 709.417969 45.53125 707.242188 42.792969 704.996094 C 40.058594 702.75 37.382812 700.441406 34.757812 698.066406 C 32.136719 695.6875 29.574219 693.25 27.074219 690.746094 C 24.570312 688.246094 22.132812 685.683594 19.757812 683.0625 C 17.378906 680.441406 15.070312 677.761719 12.824219 675.027344 C 10.582031 672.292969 8.402344 669.503906 6.296875 666.660156 C 4.1875 663.820312 2.152344 660.925781 0.1875 657.984375 C -1.78125 655.042969 -3.671875 652.054688 -5.492188 649.019531 C -7.3125 645.984375 -9.054688 642.90625 -10.722656 639.785156 C -12.390625 636.664062 -13.980469 633.503906 -15.492188 630.308594 C -17.007812 627.109375 -18.441406 623.875 -19.792969 620.605469 C -21.148438 617.335938 -22.421875 614.035156 -23.613281 610.703125 C -24.804688 607.371094 -25.914062 604.015625 -26.941406 600.628906 C -27.96875 597.242188 -28.914062 593.832031 -29.773438 590.402344 C -30.632812 586.96875 -31.40625 583.515625 -32.097656 580.046875 C -32.789062 576.578125 -33.390625 573.089844 -33.910156 569.589844 C -34.429688 566.089844 -34.863281 562.582031 -35.210938 559.058594 C -35.558594 555.539062 -35.816406 552.011719 -35.992188 548.476562 C -36.164062 544.941406 -36.25 541.40625 -36.25 537.867188 C -36.25 534.328125 -36.164062 530.792969 -35.992188 527.257812 C -35.816406 523.722656 -35.558594 520.195312 -35.210938 516.675781 C -34.863281 513.152344 -34.429688 509.644531 -33.910156 506.144531 C -33.390625 502.644531 -32.789062 499.15625 -32.097656 495.6875 C -31.40625 492.21875 -30.632812 488.765625 -29.773438 485.332031 C -28.914062 481.902344 -27.96875 478.492188 -26.941406 475.105469 C -25.914062 471.71875 -24.804688 468.359375 -23.613281 465.03125 C -22.421875 461.699219 -21.148438 458.398438 -19.792969 455.128906 C -18.441406 451.859375 -17.007812 448.625 -15.492188 445.425781 C -13.980469 442.230469 -12.390625 439.070312 -10.722656 435.949219 C -9.054688 432.828125 -7.3125 429.75 -5.492188 426.714844 C -3.671875 423.679688 -1.78125 420.691406 0.1875 417.75 C 2.152344 414.808594 4.1875 411.914062 6.296875 409.074219 C 8.402344 406.230469 10.582031 403.441406 12.824219 400.707031 C 15.070312 397.972656 17.378906 395.292969 19.757812 392.671875 C 22.132812 390.050781 24.570312 387.488281 27.074219 384.988281 C 29.574219 382.484375 32.136719 380.046875 34.757812 377.667969 C 37.382812 375.292969 40.058594 372.984375 42.792969 370.738281 C 45.53125 368.492188 48.320312 366.316406 51.160156 364.210938 C 54.003906 362.101562 56.894531 360.066406 59.835938 358.097656 C 62.777344 356.132812 65.765625 354.242188 68.800781 352.421875 C 71.835938 350.601562 74.914062 348.859375 78.035156 347.191406 C 81.15625 345.523438 84.316406 343.933594 87.515625 342.417969 C 90.714844 340.90625 93.945312 339.472656 97.214844 338.121094 C 100.484375 336.765625 103.785156 335.492188 107.117188 334.300781 C 110.449219 333.109375 113.808594 332 117.191406 330.972656 C 120.578125 329.945312 123.988281 329 127.421875 328.140625 C 130.851562 327.28125 134.304688 326.507812 137.773438 325.816406 C 141.246094 325.125 144.730469 324.519531 148.230469 324 C 151.730469 323.484375 155.242188 323.050781 158.761719 322.703125 C 162.285156 322.355469 165.8125 322.09375 169.34375 321.921875 C 172.878906 321.75 176.414062 321.660156 179.953125 321.660156 C 183.492188 321.660156 187.027344 321.75 190.5625 321.921875 C 194.097656 322.09375 197.625 322.355469 201.144531 322.703125 C 204.667969 323.050781 208.179688 323.484375 211.679688 324 C 215.179688 324.519531 218.664062 325.125 222.132812 325.816406 C 225.605469 326.507812 229.054688 327.28125 232.488281 328.140625 C 235.921875 329 239.328125 329.945312 242.714844 330.972656 C 246.101562 332 249.460938 333.109375 252.792969 334.300781 C 256.121094 335.492188 259.421875 336.765625 262.691406 338.121094 C 265.960938 339.472656 269.195312 340.90625 272.394531 342.417969 C 275.59375 343.933594 278.753906 345.523438 281.871094 347.191406 C 284.992188 348.859375 288.070312 350.601562 291.105469 352.421875 C 294.140625 354.242188 297.128906 356.132812 300.070312 358.097656 C 303.011719 360.066406 305.90625 362.101562 308.746094 364.210938 C 311.589844 366.316406 314.378906 368.492188 317.113281 370.738281 C 319.847656 372.984375 322.527344 375.292969 325.148438 377.667969 C 327.769531 380.046875 330.332031 382.484375 332.835938 384.988281 C 335.335938 387.488281 337.777344 390.050781 340.152344 392.671875 C 342.527344 395.292969 344.839844 397.972656 347.082031 400.707031 C 349.328125 403.441406 351.503906 406.230469 353.613281 409.074219 C 355.71875 411.914062 357.757812 414.808594 359.722656 417.75 C 361.6875 420.691406 363.582031 423.679688 365.398438 426.714844 C 367.21875 429.75 368.960938 432.828125 370.628906 435.949219 C 372.296875 439.070312 373.886719 442.230469 375.402344 445.425781 C 376.914062 448.625 378.347656 451.859375 379.703125 455.128906 C 381.054688 458.398438 382.328125 461.699219 383.519531 465.03125 C 384.714844 468.359375 385.824219 471.71875 386.851562 475.105469 C 387.875 478.492188 388.820312 481.902344 389.679688 485.332031 C 390.539062 488.765625 391.316406 492.21875 392.003906 495.6875 C 392.695312 499.15625 393.300781 502.644531 393.820312 506.144531 C 394.339844 509.644531 394.773438 513.152344 395.117188 516.675781 C 395.464844 520.195312 395.726562 523.722656 395.898438 527.257812 C 396.074219 530.792969 396.160156 534.328125 396.160156 537.867188 Z M 396.160156 537.867188 " fill-opacity="1" fill-rule="nonzero"/></g><g clip-path="url(#212fe73027)"><path fill="#fff18f" d="M 360.90625 547.855469 C 360.90625 550.816406 360.832031 553.777344 360.6875 556.734375 C 360.542969 559.691406 360.324219 562.644531 360.035156 565.59375 C 359.742188 568.542969 359.378906 571.480469 358.945312 574.410156 C 358.511719 577.339844 358.003906 580.257812 357.425781 583.164062 C 356.851562 586.066406 356.199219 588.957031 355.480469 591.828125 C 354.761719 594.703125 353.972656 597.554688 353.113281 600.390625 C 352.253906 603.226562 351.324219 606.035156 350.324219 608.824219 C 349.328125 611.613281 348.261719 614.375 347.128906 617.113281 C 345.996094 619.851562 344.796875 622.558594 343.527344 625.234375 C 342.261719 627.910156 340.929688 630.558594 339.535156 633.167969 C 338.136719 635.78125 336.679688 638.359375 335.15625 640.898438 C 333.632812 643.4375 332.050781 645.941406 330.402344 648.402344 C 328.757812 650.867188 327.054688 653.285156 325.289062 655.664062 C 323.523438 658.042969 321.703125 660.378906 319.824219 662.667969 C 317.945312 664.957031 316.011719 667.199219 314.023438 669.394531 C 312.03125 671.589844 309.992188 673.734375 307.894531 675.828125 C 305.800781 677.921875 303.65625 679.964844 301.460938 681.953125 C 299.269531 683.941406 297.027344 685.875 294.738281 687.757812 C 292.445312 689.636719 290.113281 691.457031 287.734375 693.222656 C 285.355469 694.984375 282.933594 696.691406 280.472656 698.335938 C 278.007812 699.980469 275.507812 701.566406 272.964844 703.089844 C 270.425781 704.609375 267.847656 706.070312 265.238281 707.46875 C 262.625 708.863281 259.980469 710.195312 257.300781 711.460938 C 254.625 712.726562 251.917969 713.925781 249.179688 715.0625 C 246.445312 716.195312 243.683594 717.261719 240.894531 718.257812 C 238.105469 719.253906 235.292969 720.183594 232.457031 721.042969 C 229.625 721.902344 226.769531 722.695312 223.898438 723.414062 C 221.023438 724.132812 218.136719 724.78125 215.230469 725.359375 C 212.324219 725.9375 209.40625 726.445312 206.476562 726.878906 C 203.546875 727.3125 200.609375 727.675781 197.660156 727.964844 C 194.714844 728.257812 191.761719 728.472656 188.800781 728.621094 C 185.84375 728.765625 182.882812 728.835938 179.921875 728.835938 C 176.960938 728.835938 174 728.765625 171.042969 728.621094 C 168.082031 728.472656 165.128906 728.257812 162.183594 727.964844 C 159.234375 727.675781 156.296875 727.3125 153.367188 726.878906 C 150.4375 726.445312 147.519531 725.9375 144.613281 725.359375 C 141.707031 724.78125 138.820312 724.132812 135.945312 723.414062 C 133.074219 722.695312 130.21875 721.902344 127.386719 721.042969 C 124.550781 720.183594 121.738281 719.253906 118.949219 718.257812 C 116.160156 717.261719 113.398438 716.195312 110.664062 715.0625 C 107.925781 713.925781 105.21875 712.726562 102.542969 711.460938 C 99.863281 710.195312 97.21875 708.863281 94.605469 707.46875 C 91.996094 706.070312 89.417969 704.609375 86.878906 703.089844 C 84.335938 701.566406 81.835938 699.980469 79.375 698.335938 C 76.910156 696.691406 74.488281 694.984375 72.109375 693.222656 C 69.730469 691.457031 67.398438 689.636719 65.109375 687.757812 C 62.816406 685.875 60.574219 683.941406 58.382812 681.953125 C 56.1875 679.964844 54.042969 677.921875 51.949219 675.828125 C 49.851562 673.734375 47.8125 671.589844 45.824219 669.394531 C 43.832031 667.199219 41.898438 664.957031 40.019531 662.667969 C 38.140625 660.378906 36.320312 658.042969 34.554688 655.664062 C 32.789062 653.285156 31.085938 650.867188 29.441406 648.402344 C 27.792969 645.941406 26.210938 643.4375 24.6875 640.898438 C 23.164062 638.359375 21.707031 635.78125 20.308594 633.167969 C 18.914062 630.558594 17.582031 627.910156 16.316406 625.234375 C 15.050781 622.558594 13.847656 619.851562 12.714844 617.113281 C 11.582031 614.375 10.515625 611.613281 9.519531 608.824219 C 8.519531 606.035156 7.59375 603.226562 6.730469 600.390625 C 5.871094 597.554688 5.082031 594.703125 4.363281 591.828125 C 3.644531 588.957031 2.996094 586.066406 2.417969 583.164062 C 1.839844 580.257812 1.332031 577.339844 0.898438 574.410156 C 0.464844 571.480469 0.101562 568.542969 -0.191406 565.59375 C -0.480469 562.644531 -0.699219 559.691406 -0.84375 556.734375 C -0.988281 553.777344 -1.0625 550.816406 -1.0625 547.855469 C -1.0625 544.890625 -0.988281 541.933594 -0.84375 538.972656 C -0.699219 536.015625 -0.480469 533.0625 -0.191406 530.113281 C 0.101562 527.167969 0.464844 524.226562 0.898438 521.296875 C 1.332031 518.367188 1.839844 515.449219 2.417969 512.546875 C 2.996094 509.640625 3.644531 506.753906 4.363281 503.878906 C 5.082031 501.003906 5.871094 498.152344 6.730469 495.316406 C 7.59375 492.484375 8.519531 489.671875 9.519531 486.882812 C 10.515625 484.09375 11.582031 481.332031 12.714844 478.59375 C 13.847656 475.859375 15.050781 473.152344 16.316406 470.472656 C 17.582031 467.796875 18.914062 465.152344 20.308594 462.539062 C 21.707031 459.925781 23.164062 457.351562 24.6875 454.808594 C 26.210938 452.269531 27.792969 449.769531 29.441406 447.304688 C 31.085938 444.84375 32.789062 442.421875 34.554688 440.042969 C 36.320312 437.664062 38.140625 435.328125 40.019531 433.039062 C 41.898438 430.75 43.832031 428.507812 45.824219 426.3125 C 47.8125 424.117188 49.851562 421.972656 51.949219 419.878906 C 54.042969 417.785156 56.1875 415.742188 58.382812 413.753906 C 60.574219 411.765625 62.816406 409.832031 65.109375 407.953125 C 67.398438 406.074219 69.730469 404.25 72.109375 402.488281 C 74.488281 400.722656 76.910156 399.019531 79.375 397.371094 C 81.835938 395.726562 84.335938 394.140625 86.878906 392.621094 C 89.417969 391.097656 91.996094 389.636719 94.605469 388.242188 C 97.21875 386.84375 99.863281 385.515625 102.542969 384.246094 C 105.21875 382.980469 107.925781 381.78125 110.664062 380.648438 C 113.398438 379.515625 116.160156 378.449219 118.949219 377.449219 C 121.738281 376.453125 124.550781 375.523438 127.386719 374.664062 C 130.21875 373.804688 133.074219 373.015625 135.945312 372.296875 C 138.820312 371.574219 141.707031 370.925781 144.613281 370.347656 C 147.519531 369.769531 150.4375 369.265625 153.367188 368.828125 C 156.296875 368.394531 159.234375 368.03125 162.183594 367.742188 C 165.128906 367.453125 168.082031 367.234375 171.042969 367.089844 C 174 366.945312 176.960938 366.871094 179.921875 366.871094 C 182.882812 366.871094 185.84375 366.945312 188.800781 367.089844 C 191.761719 367.234375 194.714844 367.453125 197.660156 367.742188 C 200.609375 368.03125 203.546875 368.394531 206.476562 368.828125 C 209.40625 369.265625 212.324219 369.769531 215.230469 370.347656 C 218.136719 370.925781 221.023438 371.574219 223.898438 372.296875 C 226.769531 373.015625 229.625 373.804688 232.457031 374.664062 C 235.292969 375.523438 238.105469 376.453125 240.894531 377.449219 C 243.683594 378.449219 246.445312 379.515625 249.179688 380.648438 C 251.917969 381.78125 254.625 382.980469 257.300781 384.246094 C 259.980469 385.515625 262.625 386.84375 265.238281 388.242188 C 267.847656 389.636719 270.425781 391.097656 272.964844 392.621094 C 275.507812 394.140625 278.007812 395.726562 280.472656 397.371094 C 282.933594 399.019531 285.355469 400.722656 287.734375 402.488281 C 290.113281 404.25 292.445312 406.074219 294.738281 407.953125 C 297.027344 409.832031 299.269531 411.765625 301.460938 413.753906 C 303.65625 415.742188 305.800781 417.785156 307.894531 419.878906 C 309.992188 421.972656 312.03125 424.117188 314.023438 426.3125 C 316.011719 428.507812 317.945312 430.75 319.824219 433.039062 C 321.703125 435.328125 323.523438 437.664062 325.289062 440.042969 C 327.054688 442.421875 328.757812 444.84375 330.402344 447.304688 C 332.050781 449.769531 333.632812 452.269531 335.15625 454.808594 C 336.679688 457.351562 338.136719 459.925781 339.535156 462.539062 C 340.929688 465.152344 342.261719 467.796875 343.527344 470.472656 C 344.796875 473.152344 345.996094 475.859375 347.128906 478.59375 C 348.261719 481.332031 349.328125 484.09375 350.324219 486.882812 C 351.324219 489.671875 352.253906 492.484375 353.113281 495.316406 C 353.972656 498.152344 354.761719 501.003906 355.480469 503.878906 C 356.199219 506.753906 356.851562 509.640625 357.425781 512.546875 C 358.003906 515.449219 358.511719 518.367188 358.945312 521.296875 C 359.378906 524.226562 359.742188 527.167969 360.035156 530.113281 C 360.324219 533.0625 360.542969 536.015625 360.6875 538.972656 C 360.832031 541.933594 360.90625 544.890625 360.90625 547.855469 Z M 360.90625 547.855469 " fill-opacity="1" fill-rule="nonzero"/></g><g clip-path="url(#c5205f3758)"><path fill="#ffd773" d="M 320.976562 555.476562 C 320.976562 557.78125 320.921875 560.085938 320.808594 562.390625 C 320.695312 564.691406 320.527344 566.992188 320.300781 569.285156 C 320.074219 571.582031 319.792969 573.867188 319.453125 576.148438 C 319.113281 578.429688 318.71875 580.699219 318.269531 582.960938 C 317.820312 585.222656 317.316406 587.472656 316.753906 589.710938 C 316.195312 591.945312 315.582031 594.167969 314.910156 596.375 C 314.242188 598.582031 313.519531 600.769531 312.742188 602.941406 C 311.964844 605.113281 311.136719 607.261719 310.253906 609.390625 C 309.371094 611.523438 308.4375 613.628906 307.449219 615.714844 C 306.464844 617.796875 305.429688 619.859375 304.34375 621.890625 C 303.253906 623.925781 302.117188 625.929688 300.933594 627.90625 C 299.75 629.886719 298.515625 631.832031 297.234375 633.75 C 295.953125 635.667969 294.625 637.550781 293.253906 639.402344 C 291.878906 641.257812 290.460938 643.074219 288.996094 644.855469 C 287.535156 646.636719 286.027344 648.382812 284.480469 650.09375 C 282.933594 651.800781 281.34375 653.46875 279.710938 655.101562 C 278.082031 656.730469 276.414062 658.320312 274.703125 659.867188 C 272.996094 661.417969 271.25 662.921875 269.46875 664.386719 C 267.683594 665.847656 265.867188 667.265625 264.015625 668.640625 C 262.164062 670.011719 260.28125 671.339844 258.363281 672.621094 C 256.445312 673.902344 254.496094 675.136719 252.519531 676.320312 C 250.542969 677.507812 248.535156 678.644531 246.503906 679.730469 C 244.46875 680.816406 242.410156 681.851562 240.328125 682.839844 C 238.242188 683.824219 236.136719 684.757812 234.003906 685.640625 C 231.875 686.523438 229.722656 687.351562 227.554688 688.128906 C 225.382812 688.90625 223.191406 689.628906 220.988281 690.300781 C 218.78125 690.96875 216.558594 691.582031 214.320312 692.144531 C 212.085938 692.703125 209.835938 693.207031 207.574219 693.660156 C 205.3125 694.109375 203.042969 694.503906 200.761719 694.839844 C 198.480469 695.179688 196.191406 695.460938 193.898438 695.6875 C 191.601562 695.914062 189.304688 696.082031 187 696.195312 C 184.699219 696.308594 182.394531 696.367188 180.089844 696.367188 C 177.78125 696.367188 175.476562 696.308594 173.175781 696.195312 C 170.871094 696.082031 168.574219 695.914062 166.277344 695.6875 C 163.984375 695.460938 161.695312 695.179688 159.414062 694.839844 C 157.136719 694.503906 154.863281 694.109375 152.601562 693.660156 C 150.339844 693.207031 148.09375 692.703125 145.855469 692.144531 C 143.617188 691.582031 141.398438 690.96875 139.191406 690.300781 C 136.984375 689.628906 134.796875 688.90625 132.625 688.128906 C 130.453125 687.351562 128.304688 686.523438 126.171875 685.640625 C 124.042969 684.757812 121.933594 683.824219 119.851562 682.839844 C 117.765625 681.851562 115.707031 680.816406 113.671875 679.730469 C 111.640625 678.644531 109.632812 677.507812 107.65625 676.320312 C 105.679688 675.136719 103.730469 673.902344 101.816406 672.621094 C 99.898438 671.339844 98.011719 670.011719 96.160156 668.640625 C 94.308594 667.265625 92.492188 665.847656 90.710938 664.386719 C 88.925781 662.921875 87.179688 661.417969 85.472656 659.867188 C 83.765625 658.320312 82.09375 656.730469 80.464844 655.101562 C 78.835938 653.46875 77.246094 651.800781 75.695312 650.09375 C 74.148438 648.382812 72.640625 646.636719 71.179688 644.855469 C 69.714844 643.074219 68.296875 641.257812 66.925781 639.402344 C 65.550781 637.550781 64.222656 635.667969 62.941406 633.75 C 61.664062 631.832031 60.429688 629.886719 59.242188 627.90625 C 58.058594 625.929688 56.921875 623.925781 55.835938 621.890625 C 54.75 619.859375 53.710938 617.796875 52.726562 615.714844 C 51.738281 613.628906 50.804688 611.523438 49.921875 609.390625 C 49.042969 607.261719 48.210938 605.113281 47.433594 602.941406 C 46.65625 600.769531 45.933594 598.582031 45.265625 596.375 C 44.597656 594.167969 43.980469 591.945312 43.421875 589.710938 C 42.859375 587.472656 42.355469 585.222656 41.90625 582.960938 C 41.457031 580.699219 41.0625 578.429688 40.722656 576.148438 C 40.386719 573.867188 40.105469 571.582031 39.878906 569.285156 C 39.652344 566.992188 39.480469 564.691406 39.367188 562.390625 C 39.253906 560.085938 39.199219 557.78125 39.199219 555.476562 C 39.199219 553.171875 39.253906 550.867188 39.367188 548.5625 C 39.480469 546.261719 39.652344 543.960938 39.878906 541.667969 C 40.105469 539.371094 40.386719 537.085938 40.722656 534.804688 C 41.0625 532.523438 41.457031 530.25 41.90625 527.988281 C 42.355469 525.730469 42.859375 523.480469 43.421875 521.242188 C 43.980469 519.007812 44.597656 516.785156 45.265625 514.578125 C 45.933594 512.371094 46.65625 510.183594 47.433594 508.011719 C 48.210938 505.839844 49.042969 503.691406 49.921875 501.558594 C 50.804688 499.429688 51.738281 497.324219 52.726562 495.238281 C 53.710938 493.152344 54.75 491.09375 55.835938 489.0625 C 56.921875 487.027344 58.058594 485.023438 59.242188 483.042969 C 60.429688 481.066406 61.664062 479.121094 62.941406 477.203125 C 64.222656 475.285156 65.550781 473.402344 66.925781 471.546875 C 68.296875 469.695312 69.714844 467.878906 71.179688 466.097656 C 72.640625 464.316406 74.148438 462.570312 75.695312 460.859375 C 77.246094 459.152344 78.835938 457.484375 80.464844 455.851562 C 82.09375 454.222656 83.765625 452.632812 85.472656 451.085938 C 87.179688 449.535156 88.925781 448.03125 90.710938 446.566406 C 92.492188 445.105469 94.308594 443.6875 96.160156 442.3125 C 98.011719 440.9375 99.898438 439.613281 101.816406 438.332031 C 103.730469 437.050781 105.679688 435.816406 107.65625 434.632812 C 109.632812 433.445312 111.640625 432.308594 113.671875 431.222656 C 115.707031 430.136719 117.765625 429.097656 119.851562 428.113281 C 121.933594 427.128906 124.042969 426.195312 126.171875 425.3125 C 128.304688 424.429688 130.453125 423.597656 132.625 422.824219 C 134.796875 422.046875 136.984375 421.324219 139.191406 420.652344 C 141.398438 419.984375 143.617188 419.371094 145.855469 418.808594 C 148.09375 418.25 150.339844 417.742188 152.601562 417.292969 C 154.863281 416.84375 157.136719 416.449219 159.414062 416.113281 C 161.695312 415.773438 163.984375 415.492188 166.277344 415.265625 C 168.574219 415.039062 170.871094 414.871094 173.175781 414.757812 C 175.476562 414.644531 177.78125 414.585938 180.089844 414.585938 C 182.394531 414.585938 184.699219 414.644531 187 414.757812 C 189.304688 414.871094 191.601562 415.039062 193.898438 415.265625 C 196.191406 415.492188 198.480469 415.773438 200.761719 416.113281 C 203.042969 416.449219 205.3125 416.84375 207.574219 417.292969 C 209.835938 417.742188 212.085938 418.25 214.320312 418.808594 C 216.558594 419.371094 218.78125 419.984375 220.988281 420.652344 C 223.191406 421.324219 225.382812 422.046875 227.554688 422.824219 C 229.722656 423.597656 231.875 424.429688 234.003906 425.3125 C 236.136719 426.195312 238.242188 427.128906 240.328125 428.113281 C 242.410156 429.097656 244.46875 430.136719 246.503906 431.222656 C 248.535156 432.308594 250.542969 433.445312 252.519531 434.632812 C 254.496094 435.816406 256.445312 437.050781 258.363281 438.332031 C 260.28125 439.613281 262.164062 440.9375 264.015625 442.3125 C 265.867188 443.6875 267.683594 445.105469 269.46875 446.566406 C 271.25 448.03125 272.996094 449.535156 274.703125 451.085938 C 276.414062 452.632812 278.082031 454.222656 279.710938 455.851562 C 281.34375 457.484375 282.933594 459.152344 284.480469 460.859375 C 286.027344 462.570312 287.535156 464.316406 288.996094 466.097656 C 290.460938 467.878906 291.878906 469.695312 293.253906 471.546875 C 294.625 473.402344 295.953125 475.285156 297.234375 477.203125 C 298.515625 479.121094 299.75 481.066406 300.933594 483.042969 C 302.117188 485.023438 303.253906 487.027344 304.34375 489.0625 C 305.429688 491.09375 306.464844 493.152344 307.449219 495.238281 C 308.4375 497.324219 309.371094 499.429688 310.253906 501.558594 C 311.136719 503.691406 311.964844 505.839844 312.742188 508.011719 C 313.519531 510.183594 314.242188 512.371094 314.910156 514.578125 C 315.582031 516.785156 316.195312 519.007812 316.753906 521.242188 C 317.316406 523.480469 317.820312 525.730469 318.269531 527.988281 C 318.722656 530.25 319.113281 532.523438 319.453125 534.804688 C 319.792969 537.085938 320.074219 539.371094 320.300781 541.667969 C 320.527344 543.960938 320.695312 546.261719 320.808594 548.5625 C 320.921875 550.867188 320.976562 553.171875 320.976562 555.476562 Z M 320.976562 555.476562 " fill-opacity="1" fill-rule="nonzero"/></g></svg>