<svg xmlns="http://www.w3.org/2000/svg" xmlns:xlink="http://www.w3.org/1999/xlink" width="500" zoomAndPan="magnify" viewBox="0 0 375 112.499997" height="150" preserveAspectRatio="xMidYMid meet" version="1.0"><defs><g/><clipPath id="feca558eea"><path d="M 0.828125 16.691406 L 97.898438 16.691406 L 97.898438 112.003906 L 0.828125 112.003906 Z M 0.828125 16.691406 " clip-rule="nonzero"/></clipPath></defs><g fill="#000000" fill-opacity="1"><g transform="translate(87.97502, 86.433656)"><g><path d="M 20.734375 0.34375 C 19.859375 0.34375 19.15625 0.078125 18.625 -0.453125 C 18.09375 -0.984375 17.828125 -1.6875 17.828125 -2.5625 L 17.828125 -44.03125 L 2.90625 -44.03125 C 2.082031 -44.03125 1.4375 -44.238281 0.96875 -44.65625 C 0.507812 -45.070312 0.28125 -45.671875 0.28125 -46.453125 C 0.28125 -47.242188 0.507812 -47.847656 0.96875 -48.265625 C 1.4375 -48.679688 2.082031 -48.890625 2.90625 -48.890625 L 38.484375 -48.890625 C 39.316406 -48.890625 39.960938 -48.679688 40.421875 -48.265625 C 40.890625 -47.847656 41.125 -47.242188 41.125 -46.453125 C 41.125 -45.671875 40.890625 -45.070312 40.421875 -44.65625 C 39.960938 -44.238281 39.316406 -44.03125 38.484375 -44.03125 L 23.578125 -44.03125 L 23.578125 -2.5625 C 23.578125 -1.6875 23.320312 -0.984375 22.8125 -0.453125 C 22.300781 0.078125 21.609375 0.34375 20.734375 0.34375 Z M 20.734375 0.34375 "/></g></g></g><g fill="#000000" fill-opacity="1"><g transform="translate(127.773142, 86.433656)"><g><path d="M 19 -34.609375 C 27.457031 -34.609375 31.6875 -30.164062 31.6875 -21.28125 L 31.6875 -2.421875 C 31.6875 -1.585938 31.441406 -0.914062 30.953125 -0.40625 C 30.472656 0.09375 29.816406 0.34375 28.984375 0.34375 C 28.148438 0.34375 27.476562 0.09375 26.96875 -0.40625 C 26.46875 -0.914062 26.21875 -1.585938 26.21875 -2.421875 L 26.21875 -5.75 C 25.332031 -3.769531 23.988281 -2.234375 22.1875 -1.140625 C 20.382812 -0.0546875 18.304688 0.484375 15.953125 0.484375 C 13.773438 0.484375 11.773438 0.046875 9.953125 -0.828125 C 8.128906 -1.710938 6.679688 -2.9375 5.609375 -4.5 C 4.546875 -6.070312 4.015625 -7.804688 4.015625 -9.703125 C 4.015625 -12.242188 4.660156 -14.21875 5.953125 -15.625 C 7.253906 -17.039062 9.382812 -18.0625 12.34375 -18.6875 C 15.300781 -19.3125 19.414062 -19.625 24.6875 -19.625 L 26.21875 -19.625 L 26.21875 -21.90625 C 26.21875 -24.6875 25.648438 -26.722656 24.515625 -28.015625 C 23.378906 -29.304688 21.539062 -29.953125 19 -29.953125 C 15.851562 -29.953125 12.664062 -29.097656 9.4375 -27.390625 C 8.1875 -26.609375 7.304688 -26.21875 6.796875 -26.21875 C 6.242188 -26.21875 5.78125 -26.421875 5.40625 -26.828125 C 5.039062 -27.242188 4.859375 -27.78125 4.859375 -28.4375 C 4.859375 -29.082031 5.050781 -29.644531 5.4375 -30.125 C 5.832031 -30.613281 6.46875 -31.113281 7.34375 -31.625 C 8.96875 -32.539062 10.804688 -33.265625 12.859375 -33.796875 C 14.921875 -34.335938 16.96875 -34.609375 19 -34.609375 Z M 16.71875 -3.953125 C 19.488281 -3.953125 21.765625 -4.882812 23.546875 -6.75 C 25.328125 -8.625 26.21875 -11.039062 26.21875 -14 L 26.21875 -16.015625 L 24.96875 -16.015625 C 20.894531 -16.015625 17.796875 -15.84375 15.671875 -15.5 C 13.546875 -15.15625 12.03125 -14.578125 11.125 -13.765625 C 10.226562 -12.953125 9.78125 -11.757812 9.78125 -10.1875 C 9.78125 -8.382812 10.4375 -6.894531 11.75 -5.71875 C 13.070312 -4.539062 14.726562 -3.953125 16.71875 -3.953125 Z M 16.71875 -3.953125 "/></g></g></g><g fill="#000000" fill-opacity="1"><g transform="translate(162.85649, 86.433656)"><g><path d="M 32.171875 -4.4375 C 32.910156 -3.738281 33.28125 -3 33.28125 -2.21875 C 33.28125 -1.519531 33.035156 -0.914062 32.546875 -0.40625 C 32.066406 0.09375 31.476562 0.34375 30.78125 0.34375 C 30.1875 0.34375 29.566406 0.0664062 28.921875 -0.484375 L 10.8125 -16.09375 L 10.8125 -2.421875 C 10.8125 -1.546875 10.546875 -0.863281 10.015625 -0.375 C 9.484375 0.101562 8.828125 0.34375 8.046875 0.34375 C 7.210938 0.34375 6.53125 0.101562 6 -0.375 C 5.46875 -0.863281 5.203125 -1.546875 5.203125 -2.421875 L 5.203125 -46.453125 C 5.203125 -47.335938 5.46875 -48.019531 6 -48.5 C 6.53125 -48.988281 7.210938 -49.234375 8.046875 -49.234375 C 8.828125 -49.234375 9.484375 -48.988281 10.015625 -48.5 C 10.546875 -48.019531 10.8125 -47.335938 10.8125 -46.453125 L 10.8125 -18.3125 L 27.390625 -33.5 C 27.941406 -34.050781 28.566406 -34.328125 29.265625 -34.328125 C 29.953125 -34.328125 30.550781 -34.070312 31.0625 -33.5625 C 31.570312 -33.050781 31.828125 -32.453125 31.828125 -31.765625 C 31.828125 -30.972656 31.503906 -30.273438 30.859375 -29.671875 L 17.203125 -17.46875 Z M 32.171875 -4.4375 "/></g></g></g><g fill="#000000" fill-opacity="1"><g transform="translate(195.859786, 86.433656)"><g><path d="M 31.34375 -7.828125 C 31.851562 -7.828125 32.289062 -7.617188 32.65625 -7.203125 C 33.03125 -6.796875 33.21875 -6.265625 33.21875 -5.609375 C 33.21875 -4.460938 32.40625 -3.398438 30.78125 -2.421875 C 29.125 -1.453125 27.367188 -0.722656 25.515625 -0.234375 C 23.671875 0.242188 21.867188 0.484375 20.109375 0.484375 C 14.890625 0.484375 10.765625 -1.0625 7.734375 -4.15625 C 4.703125 -7.257812 3.1875 -11.535156 3.1875 -16.984375 C 3.1875 -20.453125 3.859375 -23.515625 5.203125 -26.171875 C 6.546875 -28.835938 8.429688 -30.910156 10.859375 -32.390625 C 13.285156 -33.867188 16.046875 -34.609375 19.140625 -34.609375 C 23.523438 -34.609375 27.015625 -33.171875 29.609375 -30.296875 C 32.203125 -27.429688 33.5 -23.550781 33.5 -18.65625 C 33.5 -17.726562 33.3125 -17.054688 32.9375 -16.640625 C 32.570312 -16.222656 31.972656 -16.015625 31.140625 -16.015625 L 8.8125 -16.015625 C 9.226562 -8.066406 12.992188 -4.09375 20.109375 -4.09375 C 21.910156 -4.09375 23.457031 -4.332031 24.75 -4.8125 C 26.050781 -5.300781 27.441406 -5.960938 28.921875 -6.796875 C 30.117188 -7.484375 30.925781 -7.828125 31.34375 -7.828125 Z M 19.203125 -30.234375 C 16.242188 -30.234375 13.875 -29.304688 12.09375 -27.453125 C 10.320312 -25.609375 9.273438 -23 8.953125 -19.625 L 28.5625 -19.625 C 28.476562 -23.039062 27.625 -25.660156 26 -27.484375 C 24.382812 -29.316406 22.117188 -30.234375 19.203125 -30.234375 Z M 19.203125 -30.234375 "/></g></g></g><g fill="#000000" fill-opacity="1"><g transform="translate(230.735118, 86.433656)"><g><path d="M 26.765625 0.5625 C 22.140625 0.5625 18.140625 -0.441406 14.765625 -2.453125 C 11.390625 -4.472656 8.789062 -7.363281 6.96875 -11.125 C 5.144531 -14.894531 4.234375 -19.347656 4.234375 -24.484375 C 4.234375 -29.566406 5.144531 -33.988281 6.96875 -37.75 C 8.789062 -41.519531 11.390625 -44.410156 14.765625 -46.421875 C 18.140625 -48.429688 22.140625 -49.4375 26.765625 -49.4375 C 29.859375 -49.4375 32.78125 -48.9375 35.53125 -47.9375 C 38.289062 -46.945312 40.6875 -45.53125 42.71875 -43.6875 C 43.457031 -42.988281 43.828125 -42.179688 43.828125 -41.265625 C 43.828125 -40.609375 43.640625 -40.035156 43.265625 -39.546875 C 42.898438 -39.066406 42.460938 -38.828125 41.953125 -38.828125 C 41.398438 -38.828125 40.726562 -39.082031 39.9375 -39.59375 C 37.582031 -41.445312 35.445312 -42.742188 33.53125 -43.484375 C 31.613281 -44.222656 29.40625 -44.59375 26.90625 -44.59375 C 21.539062 -44.59375 17.410156 -42.84375 14.515625 -39.34375 C 11.628906 -35.851562 10.1875 -30.898438 10.1875 -24.484375 C 10.1875 -18.003906 11.628906 -13.019531 14.515625 -9.53125 C 17.410156 -6.039062 21.539062 -4.296875 26.90625 -4.296875 C 29.351562 -4.296875 31.546875 -4.664062 33.484375 -5.40625 C 35.429688 -6.144531 37.582031 -7.441406 39.9375 -9.296875 C 40.726562 -9.804688 41.398438 -10.0625 41.953125 -10.0625 C 42.460938 -10.0625 42.898438 -9.828125 43.265625 -9.359375 C 43.640625 -8.898438 43.828125 -8.320312 43.828125 -7.625 C 43.828125 -6.695312 43.457031 -5.890625 42.71875 -5.203125 C 40.6875 -3.347656 38.289062 -1.921875 35.53125 -0.921875 C 32.78125 0.0664062 29.859375 0.5625 26.765625 0.5625 Z M 26.765625 0.5625 "/></g></g></g><g fill="#000000" fill-opacity="1"><g transform="translate(276.010713, 86.433656)"><g><path d="M 19 -34.609375 C 27.457031 -34.609375 31.6875 -30.164062 31.6875 -21.28125 L 31.6875 -2.421875 C 31.6875 -1.585938 31.441406 -0.914062 30.953125 -0.40625 C 30.472656 0.09375 29.816406 0.34375 28.984375 0.34375 C 28.148438 0.34375 27.476562 0.09375 26.96875 -0.40625 C 26.46875 -0.914062 26.21875 -1.585938 26.21875 -2.421875 L 26.21875 -5.75 C 25.332031 -3.769531 23.988281 -2.234375 22.1875 -1.140625 C 20.382812 -0.0546875 18.304688 0.484375 15.953125 0.484375 C 13.773438 0.484375 11.773438 0.046875 9.953125 -0.828125 C 8.128906 -1.710938 6.679688 -2.9375 5.609375 -4.5 C 4.546875 -6.070312 4.015625 -7.804688 4.015625 -9.703125 C 4.015625 -12.242188 4.660156 -14.21875 5.953125 -15.625 C 7.253906 -17.039062 9.382812 -18.0625 12.34375 -18.6875 C 15.300781 -19.3125 19.414062 -19.625 24.6875 -19.625 L 26.21875 -19.625 L 26.21875 -21.90625 C 26.21875 -24.6875 25.648438 -26.722656 24.515625 -28.015625 C 23.378906 -29.304688 21.539062 -29.953125 19 -29.953125 C 15.851562 -29.953125 12.664062 -29.097656 9.4375 -27.390625 C 8.1875 -26.609375 7.304688 -26.21875 6.796875 -26.21875 C 6.242188 -26.21875 5.78125 -26.421875 5.40625 -26.828125 C 5.039062 -27.242188 4.859375 -27.78125 4.859375 -28.4375 C 4.859375 -29.082031 5.050781 -29.644531 5.4375 -30.125 C 5.832031 -30.613281 6.46875 -31.113281 7.34375 -31.625 C 8.96875 -32.539062 10.804688 -33.265625 12.859375 -33.796875 C 14.921875 -34.335938 16.96875 -34.609375 19 -34.609375 Z M 16.71875 -3.953125 C 19.488281 -3.953125 21.765625 -4.882812 23.546875 -6.75 C 25.328125 -8.625 26.21875 -11.039062 26.21875 -14 L 26.21875 -16.015625 L 24.96875 -16.015625 C 20.894531 -16.015625 17.796875 -15.84375 15.671875 -15.5 C 13.546875 -15.15625 12.03125 -14.578125 11.125 -13.765625 C 10.226562 -12.953125 9.78125 -11.757812 9.78125 -10.1875 C 9.78125 -8.382812 10.4375 -6.894531 11.75 -5.71875 C 13.070312 -4.539062 14.726562 -3.953125 16.71875 -3.953125 Z M 16.71875 -3.953125 "/></g></g></g><g fill="#000000" fill-opacity="1"><g transform="translate(311.094058, 86.433656)"><g><path d="M 21.90625 -34.46875 C 23.851562 -34.601562 24.828125 -33.816406 24.828125 -32.109375 C 24.828125 -31.367188 24.617188 -30.773438 24.203125 -30.328125 C 23.785156 -29.890625 23.066406 -29.628906 22.046875 -29.546875 L 19.96875 -29.328125 C 16.875 -29.054688 14.570312 -27.957031 13.0625 -26.03125 C 11.5625 -24.113281 10.8125 -21.863281 10.8125 -19.28125 L 10.8125 -2.421875 C 10.8125 -1.503906 10.554688 -0.8125 10.046875 -0.34375 C 9.546875 0.113281 8.878906 0.34375 8.046875 0.34375 C 7.210938 0.34375 6.53125 0.101562 6 -0.375 C 5.46875 -0.863281 5.203125 -1.546875 5.203125 -2.421875 L 5.203125 -31.6875 C 5.203125 -32.5625 5.476562 -33.242188 6.03125 -33.734375 C 6.582031 -34.222656 7.253906 -34.46875 8.046875 -34.46875 C 8.785156 -34.46875 9.40625 -34.222656 9.90625 -33.734375 C 10.414062 -33.242188 10.671875 -32.585938 10.671875 -31.765625 L 10.671875 -27.875 C 11.648438 -29.90625 13.023438 -31.453125 14.796875 -32.515625 C 16.578125 -33.578125 18.625 -34.203125 20.9375 -34.390625 Z M 21.90625 -34.46875 "/></g></g></g><g fill="#000000" fill-opacity="1"><g transform="translate(333.905098, 86.433656)"><g><path d="M 31.34375 -7.828125 C 31.851562 -7.828125 32.289062 -7.617188 32.65625 -7.203125 C 33.03125 -6.796875 33.21875 -6.265625 33.21875 -5.609375 C 33.21875 -4.460938 32.40625 -3.398438 30.78125 -2.421875 C 29.125 -1.453125 27.367188 -0.722656 25.515625 -0.234375 C 23.671875 0.242188 21.867188 0.484375 20.109375 0.484375 C 14.890625 0.484375 10.765625 -1.0625 7.734375 -4.15625 C 4.703125 -7.257812 3.1875 -11.535156 3.1875 -16.984375 C 3.1875 -20.453125 3.859375 -23.515625 5.203125 -26.171875 C 6.546875 -28.835938 8.429688 -30.910156 10.859375 -32.390625 C 13.285156 -33.867188 16.046875 -34.609375 19.140625 -34.609375 C 23.523438 -34.609375 27.015625 -33.171875 29.609375 -30.296875 C 32.203125 -27.429688 33.5 -23.550781 33.5 -18.65625 C 33.5 -17.726562 33.3125 -17.054688 32.9375 -16.640625 C 32.570312 -16.222656 31.972656 -16.015625 31.140625 -16.015625 L 8.8125 -16.015625 C 9.226562 -8.066406 12.992188 -4.09375 20.109375 -4.09375 C 21.910156 -4.09375 23.457031 -4.332031 24.75 -4.8125 C 26.050781 -5.300781 27.441406 -5.960938 28.921875 -6.796875 C 30.117188 -7.484375 30.925781 -7.828125 31.34375 -7.828125 Z M 19.203125 -30.234375 C 16.242188 -30.234375 13.875 -29.304688 12.09375 -27.453125 C 10.320312 -25.609375 9.273438 -23 8.953125 -19.625 L 28.5625 -19.625 C 28.476562 -23.039062 27.625 -25.660156 26 -27.484375 C 24.382812 -29.316406 22.117188 -30.234375 19.203125 -30.234375 Z M 19.203125 -30.234375 "/></g></g></g><path fill="#ffd773" d="M 74.558594 64.480469 C 74.558594 65.292969 74.515625 66.105469 74.4375 66.914062 C 74.355469 67.722656 74.234375 68.523438 74.074219 69.324219 C 73.914062 70.121094 73.710938 70.90625 73.472656 71.6875 C 73.234375 72.464844 72.957031 73.226562 72.640625 73.980469 C 72.324219 74.730469 71.972656 75.464844 71.582031 76.179688 C 71.195312 76.898438 70.769531 77.59375 70.3125 78.269531 C 69.851562 78.945312 69.363281 79.597656 68.839844 80.226562 C 68.316406 80.855469 67.761719 81.457031 67.179688 82.03125 C 66.59375 82.605469 65.984375 83.152344 65.347656 83.667969 C 64.707031 84.183594 64.046875 84.667969 63.359375 85.121094 C 62.675781 85.570312 61.96875 85.988281 61.238281 86.371094 C 60.511719 86.753906 59.765625 87.101562 59.003906 87.414062 C 58.242188 87.726562 57.46875 88 56.675781 88.234375 C 55.886719 88.46875 55.089844 88.667969 54.277344 88.824219 C 53.46875 88.984375 52.65625 89.105469 51.832031 89.183594 C 51.011719 89.261719 50.1875 89.304688 49.363281 89.304688 C 48.539062 89.304688 47.714844 89.261719 46.894531 89.183594 C 46.074219 89.105469 45.257812 88.984375 44.449219 88.824219 C 43.640625 88.667969 42.839844 88.46875 42.050781 88.234375 C 41.261719 88 40.484375 87.726562 39.722656 87.414062 C 38.960938 87.101562 38.214844 86.753906 37.488281 86.371094 C 36.761719 85.988281 36.054688 85.570312 35.367188 85.121094 C 34.679688 84.667969 34.019531 84.183594 33.382812 83.667969 C 32.742188 83.152344 32.132812 82.605469 31.550781 82.03125 C 30.964844 81.457031 30.414062 80.855469 29.890625 80.226562 C 29.367188 79.597656 28.875 78.945312 28.417969 78.269531 C 27.957031 77.59375 27.535156 76.898438 27.144531 76.179688 C 26.757812 75.464844 26.402344 74.730469 26.089844 73.980469 C 25.773438 73.226562 25.496094 72.464844 25.253906 71.6875 C 25.015625 70.90625 24.816406 70.121094 24.652344 69.324219 C 24.492188 68.523438 24.371094 67.722656 24.292969 66.914062 C 24.210938 66.105469 24.171875 65.292969 24.171875 64.480469 C 24.171875 63.667969 24.210938 62.855469 24.292969 62.046875 C 24.371094 61.238281 24.492188 60.433594 24.652344 59.636719 C 24.816406 58.839844 25.015625 58.050781 25.253906 57.273438 C 25.496094 56.496094 25.773438 55.730469 26.089844 54.980469 C 26.402344 54.230469 26.757812 53.496094 27.144531 52.777344 C 27.535156 52.0625 27.957031 51.363281 28.417969 50.6875 C 28.875 50.011719 29.367188 49.359375 29.890625 48.730469 C 30.414062 48.105469 30.964844 47.5 31.550781 46.925781 C 32.132812 46.351562 32.742188 45.808594 33.382812 45.292969 C 34.019531 44.773438 34.679688 44.292969 35.367188 43.839844 C 36.054688 43.386719 36.761719 42.972656 37.488281 42.585938 C 38.214844 42.203125 38.960938 41.855469 39.722656 41.546875 C 40.484375 41.234375 41.261719 40.960938 42.050781 40.726562 C 42.839844 40.488281 43.640625 40.292969 44.449219 40.132812 C 45.257812 39.976562 46.074219 39.855469 46.894531 39.777344 C 47.714844 39.695312 48.539062 39.65625 49.363281 39.65625 C 50.1875 39.65625 51.011719 39.695312 51.832031 39.777344 C 52.65625 39.855469 53.46875 39.976562 54.277344 40.132812 C 55.089844 40.292969 55.886719 40.488281 56.675781 40.726562 C 57.46875 40.960938 58.242188 41.234375 59.003906 41.546875 C 59.765625 41.855469 60.511719 42.203125 61.238281 42.585938 C 61.96875 42.972656 62.675781 43.386719 63.359375 43.839844 C 64.046875 44.292969 64.707031 44.773438 65.347656 45.292969 C 65.984375 45.808594 66.59375 46.351562 67.179688 46.925781 C 67.761719 47.5 68.316406 48.105469 68.839844 48.730469 C 69.363281 49.359375 69.851562 50.011719 70.3125 50.6875 C 70.769531 51.363281 71.195312 52.0625 71.582031 52.777344 C 71.972656 53.496094 72.324219 54.230469 72.640625 54.980469 C 72.957031 55.730469 73.234375 56.496094 73.472656 57.273438 C 73.710938 58.050781 73.914062 58.839844 74.074219 59.636719 C 74.234375 60.433594 74.355469 61.238281 74.4375 62.046875 C 74.515625 62.855469 74.558594 63.667969 74.558594 64.480469 Z M 74.558594 64.480469 " fill-opacity="1" fill-rule="nonzero"/><g clip-path="url(#feca558eea)"><path fill="#d1a12a" d="M 49.363281 33.503906 C 48.632812 33.503906 48.054688 32.925781 48.054688 32.195312 L 48.054688 18 C 48.054688 17.269531 48.632812 16.691406 49.363281 16.691406 C 50.097656 16.691406 50.671875 17.269531 50.671875 18 L 50.671875 32.195312 C 50.671875 32.902344 50.070312 33.503906 49.363281 33.503906 Z M 50.671875 110.957031 L 50.671875 96.765625 C 50.671875 96.03125 50.097656 95.457031 49.363281 95.457031 C 48.632812 95.457031 48.054688 96.03125 48.054688 96.765625 L 48.054688 110.957031 C 48.054688 111.691406 48.632812 112.265625 49.363281 112.265625 C 50.097656 112.265625 50.671875 111.691406 50.671875 110.957031 Z M 17.863281 64.480469 C 17.863281 63.746094 17.289062 63.171875 16.558594 63.171875 L 2.167969 63.171875 C 1.4375 63.171875 0.859375 63.746094 0.859375 64.480469 C 0.859375 65.214844 1.4375 65.789062 2.167969 65.789062 L 16.558594 65.789062 C 17.289062 65.789062 17.863281 65.214844 17.863281 64.480469 Z M 97.867188 64.480469 C 97.867188 63.746094 97.292969 63.171875 96.558594 63.171875 L 82.171875 63.171875 C 81.4375 63.171875 80.863281 63.746094 80.863281 64.480469 C 80.863281 65.214844 81.4375 65.789062 82.171875 65.789062 L 96.558594 65.789062 C 97.292969 65.789062 97.867188 65.214844 97.867188 64.480469 Z M 27.101562 42.5625 C 27.597656 42.039062 27.597656 41.226562 27.074219 40.703125 L 16.898438 30.675781 C 16.375 30.175781 15.5625 30.175781 15.039062 30.699219 C 14.542969 31.226562 14.542969 32.035156 15.066406 32.558594 L 25.242188 42.589844 C 25.503906 42.851562 25.816406 42.957031 26.160156 42.957031 C 26.5 42.957031 26.839844 42.824219 27.101562 42.5625 Z M 83.660156 98.285156 C 84.160156 97.761719 84.160156 96.949219 83.636719 96.425781 L 73.457031 86.398438 C 72.9375 85.898438 72.125 85.898438 71.601562 86.421875 C 71.105469 86.945312 71.105469 87.757812 71.628906 88.28125 L 81.804688 98.3125 C 82.066406 98.574219 82.378906 98.675781 82.71875 98.675781 C 83.058594 98.675781 83.402344 98.546875 83.660156 98.285156 Z M 16.898438 98.285156 L 27.074219 88.253906 C 27.597656 87.757812 27.597656 86.921875 27.101562 86.398438 C 26.601562 85.871094 25.765625 85.871094 25.242188 86.371094 L 15.066406 96.425781 C 14.542969 96.921875 14.542969 97.761719 15.039062 98.285156 C 15.300781 98.546875 15.640625 98.675781 15.980469 98.675781 C 16.320312 98.675781 16.636719 98.546875 16.898438 98.285156 Z M 73.457031 42.589844 L 83.636719 32.558594 C 84.160156 32.0625 84.160156 31.226562 83.660156 30.699219 C 83.164062 30.175781 82.328125 30.175781 81.804688 30.675781 L 71.628906 40.703125 C 71.105469 41.203125 71.105469 42.039062 71.601562 42.5625 C 71.863281 42.824219 72.203125 42.957031 72.542969 42.957031 C 72.882812 42.957031 73.222656 42.824219 73.457031 42.589844 Z M 37.277344 35.78125 C 37.929688 35.492188 38.246094 34.734375 37.984375 34.078125 L 35.417969 27.976562 C 35.132812 27.324219 34.375 27.007812 33.691406 27.269531 C 33.039062 27.558594 32.726562 28.316406 32.988281 28.972656 L 35.550781 35.074219 C 35.761719 35.570312 36.257812 35.886719 36.753906 35.886719 C 36.964844 35.886719 37.121094 35.859375 37.277344 35.78125 Z M 65.007812 101.714844 C 65.664062 101.425781 65.976562 100.667969 65.714844 100.011719 L 63.152344 93.910156 C 62.863281 93.257812 62.105469 92.941406 61.425781 93.203125 C 60.769531 93.492188 60.457031 94.253906 60.71875 94.90625 L 63.28125 101.007812 C 63.492188 101.503906 63.988281 101.820312 64.484375 101.820312 C 64.667969 101.820312 64.851562 101.765625 65.007812 101.714844 Z M 13.285156 80.609375 L 19.488281 78.070312 C 20.167969 77.808594 20.480469 77.023438 20.195312 76.367188 C 19.933594 75.6875 19.148438 75.371094 18.492188 75.660156 L 12.292969 78.199219 C 11.613281 78.460938 11.296875 79.25 11.585938 79.902344 C 11.796875 80.398438 12.292969 80.714844 12.789062 80.714844 C 12.945312 80.714844 13.128906 80.6875 13.285156 80.609375 Z M 80.207031 53.324219 L 86.410156 50.785156 C 87.089844 50.523438 87.402344 49.738281 87.117188 49.082031 C 86.855469 48.402344 86.070312 48.089844 85.414062 48.375 L 79.214844 50.914062 C 78.535156 51.179688 78.21875 51.964844 78.507812 52.617188 C 78.71875 53.117188 79.214844 53.429688 79.710938 53.429688 C 79.894531 53.402344 80.050781 53.378906 80.207031 53.324219 Z M 63.152344 35.101562 L 65.714844 29 C 66.003906 28.34375 65.6875 27.558594 65.007812 27.296875 C 64.328125 27.007812 63.570312 27.324219 63.28125 28.003906 L 60.71875 34.105469 C 60.429688 34.761719 60.746094 35.546875 61.425781 35.808594 C 61.582031 35.886719 61.765625 35.910156 61.921875 35.910156 C 62.445312 35.886719 62.941406 35.597656 63.152344 35.101562 Z M 35.417969 101.007812 L 37.984375 94.90625 C 38.269531 94.253906 37.957031 93.464844 37.277344 93.203125 C 36.597656 92.917969 35.839844 93.230469 35.550781 93.910156 L 32.988281 100.011719 C 32.699219 100.667969 33.011719 101.453125 33.691406 101.714844 C 33.851562 101.792969 34.03125 101.820312 34.191406 101.820312 C 34.714844 101.820312 35.210938 101.503906 35.417969 101.007812 Z M 20.21875 52.589844 C 20.480469 51.910156 20.167969 51.152344 19.511719 50.890625 L 13.3125 48.351562 C 12.632812 48.089844 11.875 48.402344 11.613281 49.058594 C 11.351562 49.738281 11.664062 50.496094 12.320312 50.757812 L 18.519531 53.296875 C 18.675781 53.378906 18.859375 53.402344 19.015625 53.402344 C 19.511719 53.402344 20.011719 53.089844 20.21875 52.589844 Z M 87.140625 79.902344 C 87.402344 79.222656 87.089844 78.460938 86.433594 78.199219 L 80.207031 75.660156 C 79.527344 75.398438 78.769531 75.714844 78.507812 76.367188 C 78.246094 77.046875 78.558594 77.808594 79.214844 78.070312 L 85.414062 80.609375 C 85.570312 80.6875 85.753906 80.714844 85.910156 80.714844 C 86.433594 80.714844 86.933594 80.398438 87.140625 79.902344 Z M 87.140625 79.902344 " fill-opacity="1" fill-rule="nonzero"/></g></svg>