<svg xmlns="http://www.w3.org/2000/svg" xmlns:xlink="http://www.w3.org/1999/xlink" width="500" zoomAndPan="magnify" viewBox="0 0 375 149.999998" height="200" preserveAspectRatio="xMidYMid meet" version="1.0"><defs><g/><clipPath id="526dca5cde"><path d="M 18.160156 24.542969 L 108.160156 24.542969 L 108.160156 113.042969 L 18.160156 113.042969 Z M 18.160156 24.542969 " clip-rule="nonzero"/></clipPath></defs><path fill="#ffd773" d="M 86.519531 68.792969 C 86.519531 69.546875 86.484375 70.296875 86.410156 71.046875 C 86.332031 71.796875 86.222656 72.539062 86.070312 73.277344 C 85.921875 74.015625 85.738281 74.746094 85.515625 75.46875 C 85.292969 76.1875 85.035156 76.894531 84.742188 77.589844 C 84.449219 78.285156 84.121094 78.964844 83.761719 79.628906 C 83.402344 80.292969 83.007812 80.9375 82.582031 81.566406 C 82.160156 82.191406 81.703125 82.792969 81.21875 83.375 C 80.734375 83.957031 80.21875 84.515625 79.679688 85.046875 C 79.136719 85.582031 78.570312 86.085938 77.980469 86.5625 C 77.386719 87.039062 76.773438 87.488281 76.136719 87.90625 C 75.503906 88.324219 74.847656 88.710938 74.171875 89.066406 C 73.496094 89.421875 72.808594 89.742188 72.101562 90.03125 C 71.394531 90.320312 70.671875 90.570312 69.941406 90.789062 C 69.210938 91.007812 68.46875 91.191406 67.71875 91.339844 C 66.96875 91.484375 66.210938 91.597656 65.449219 91.667969 C 64.6875 91.742188 63.925781 91.78125 63.160156 91.78125 C 62.394531 91.78125 61.632812 91.742188 60.871094 91.667969 C 60.109375 91.597656 59.351562 91.484375 58.601562 91.339844 C 57.851562 91.191406 57.109375 91.007812 56.378906 90.789062 C 55.648438 90.570312 54.925781 90.320312 54.222656 90.03125 C 53.515625 89.742188 52.824219 89.421875 52.148438 89.066406 C 51.472656 88.710938 50.816406 88.324219 50.183594 87.90625 C 49.546875 87.488281 48.933594 87.039062 48.339844 86.5625 C 47.75 86.085938 47.183594 85.582031 46.640625 85.046875 C 46.101562 84.515625 45.589844 83.957031 45.101562 83.375 C 44.617188 82.792969 44.160156 82.191406 43.738281 81.566406 C 43.3125 80.9375 42.917969 80.292969 42.558594 79.628906 C 42.199219 78.964844 41.871094 78.285156 41.578125 77.589844 C 41.285156 76.894531 41.027344 76.1875 40.804688 75.46875 C 40.582031 74.746094 40.398438 74.015625 40.25 73.277344 C 40.097656 72.539062 39.988281 71.796875 39.914062 71.046875 C 39.835938 70.296875 39.800781 69.546875 39.800781 68.792969 C 39.800781 68.042969 39.835938 67.289062 39.914062 66.542969 C 39.988281 65.792969 40.097656 65.046875 40.25 64.308594 C 40.398438 63.570312 40.582031 62.84375 40.804688 62.121094 C 41.027344 61.402344 41.285156 60.695312 41.578125 60 C 41.871094 59.304688 42.199219 58.625 42.558594 57.960938 C 42.917969 57.296875 43.3125 56.652344 43.738281 56.023438 C 44.160156 55.398438 44.617188 54.792969 45.101562 54.210938 C 45.589844 53.628906 46.101562 53.074219 46.640625 52.542969 C 47.183594 52.007812 47.75 51.503906 48.339844 51.027344 C 48.933594 50.550781 49.546875 50.101562 50.183594 49.683594 C 50.816406 49.265625 51.472656 48.878906 52.148438 48.523438 C 52.824219 48.167969 53.515625 47.847656 54.222656 47.558594 C 54.925781 47.269531 55.648438 47.015625 56.378906 46.796875 C 57.109375 46.582031 57.851562 46.398438 58.601562 46.25 C 59.351562 46.105469 60.109375 45.992188 60.871094 45.917969 C 61.632812 45.847656 62.394531 45.808594 63.160156 45.808594 C 63.925781 45.808594 64.6875 45.847656 65.449219 45.917969 C 66.210938 45.992188 66.96875 46.105469 67.71875 46.25 C 68.46875 46.398438 69.210938 46.582031 69.941406 46.796875 C 70.671875 47.015625 71.394531 47.269531 72.101562 47.558594 C 72.808594 47.847656 73.496094 48.167969 74.171875 48.523438 C 74.847656 48.878906 75.503906 49.265625 76.136719 49.683594 C 76.773438 50.101562 77.386719 50.550781 77.980469 51.027344 C 78.570312 51.503906 79.136719 52.007812 79.679688 52.542969 C 80.21875 53.074219 80.734375 53.628906 81.21875 54.210938 C 81.703125 54.792969 82.160156 55.398438 82.582031 56.023438 C 83.007812 56.652344 83.402344 57.296875 83.761719 57.960938 C 84.121094 58.625 84.449219 59.304688 84.742188 60 C 85.035156 60.695312 85.292969 61.402344 85.515625 62.121094 C 85.738281 62.84375 85.921875 63.570312 86.070312 64.308594 C 86.222656 65.046875 86.332031 65.792969 86.410156 66.542969 C 86.484375 67.289062 86.519531 68.042969 86.519531 68.792969 Z M 86.519531 68.792969 " fill-opacity="1" fill-rule="nonzero"/><g clip-path="url(#526dca5cde)"><path fill="#d1a12a" d="M 63.160156 40.109375 C 62.480469 40.109375 61.949219 39.578125 61.949219 38.898438 L 61.949219 25.757812 C 61.949219 25.078125 62.480469 24.542969 63.160156 24.542969 C 63.839844 24.542969 64.375 25.078125 64.375 25.757812 L 64.375 38.898438 C 64.375 39.554688 63.816406 40.109375 63.160156 40.109375 Z M 64.375 111.832031 L 64.375 98.691406 C 64.375 98.011719 63.839844 97.476562 63.160156 97.476562 C 62.480469 97.476562 61.949219 98.011719 61.949219 98.691406 L 61.949219 111.832031 C 61.949219 112.511719 62.480469 113.042969 63.160156 113.042969 C 63.839844 113.042969 64.375 112.511719 64.375 111.832031 Z M 33.953125 68.792969 C 33.953125 68.117188 33.421875 67.582031 32.742188 67.582031 L 19.398438 67.582031 C 18.71875 67.582031 18.1875 68.117188 18.1875 68.792969 C 18.1875 69.472656 18.71875 70.007812 19.398438 70.007812 L 32.742188 70.007812 C 33.421875 70.007812 33.953125 69.472656 33.953125 68.792969 Z M 108.132812 68.792969 C 108.132812 68.117188 107.601562 67.582031 106.921875 67.582031 L 93.578125 67.582031 C 92.902344 67.582031 92.367188 68.117188 92.367188 68.792969 C 92.367188 69.472656 92.902344 70.007812 93.578125 70.007812 L 106.921875 70.007812 C 107.601562 70.007812 108.132812 69.472656 108.132812 68.792969 Z M 42.515625 48.5 C 42.976562 48.015625 42.976562 47.265625 42.492188 46.777344 L 33.054688 37.492188 C 32.570312 37.03125 31.820312 37.03125 31.332031 37.515625 C 30.875 38 30.875 38.753906 31.359375 39.238281 L 40.792969 48.523438 C 41.039062 48.765625 41.328125 48.863281 41.644531 48.863281 C 41.957031 48.863281 42.273438 48.742188 42.515625 48.5 Z M 94.960938 100.097656 C 95.421875 99.613281 95.421875 98.859375 94.9375 98.375 L 85.5 89.089844 C 85.015625 88.628906 84.265625 88.628906 83.78125 89.113281 C 83.320312 89.597656 83.320312 90.351562 83.804688 90.835938 L 93.238281 100.121094 C 93.484375 100.363281 93.773438 100.460938 94.089844 100.460938 C 94.40625 100.460938 94.71875 100.339844 94.960938 100.097656 Z M 33.054688 100.097656 L 42.492188 90.8125 C 42.976562 90.351562 42.976562 89.574219 42.515625 89.089844 C 42.054688 88.605469 41.28125 88.605469 40.792969 89.066406 L 31.359375 98.375 C 30.875 98.835938 30.875 99.613281 31.332031 100.097656 C 31.578125 100.339844 31.890625 100.460938 32.207031 100.460938 C 32.523438 100.460938 32.8125 100.339844 33.054688 100.097656 Z M 85.5 48.523438 L 94.9375 39.238281 C 95.421875 38.777344 95.421875 38 94.960938 37.515625 C 94.5 37.03125 93.726562 37.03125 93.238281 37.492188 L 83.804688 46.777344 C 83.320312 47.238281 83.320312 48.015625 83.78125 48.5 C 84.023438 48.742188 84.335938 48.863281 84.652344 48.863281 C 84.96875 48.863281 85.285156 48.742188 85.5 48.523438 Z M 51.953125 42.21875 C 52.558594 41.953125 52.851562 41.25 52.609375 40.644531 L 50.230469 34.996094 C 49.964844 34.390625 49.261719 34.097656 48.628906 34.339844 C 48.023438 34.605469 47.730469 35.308594 47.976562 35.917969 L 50.351562 41.566406 C 50.546875 42.027344 51.007812 42.316406 51.46875 42.316406 C 51.660156 42.316406 51.808594 42.292969 51.953125 42.21875 Z M 77.667969 103.273438 C 78.273438 103.007812 78.5625 102.304688 78.320312 101.699219 L 75.945312 96.046875 C 75.675781 95.441406 74.972656 95.152344 74.34375 95.394531 C 73.738281 95.660156 73.445312 96.363281 73.6875 96.96875 L 76.066406 102.617188 C 76.257812 103.078125 76.71875 103.371094 77.179688 103.371094 C 77.351562 103.371094 77.519531 103.320312 77.667969 103.273438 Z M 29.707031 83.730469 L 35.457031 81.378906 C 36.089844 81.136719 36.378906 80.410156 36.113281 79.800781 C 35.871094 79.171875 35.140625 78.882812 34.535156 79.148438 L 28.785156 81.5 C 28.15625 81.742188 27.863281 82.46875 28.132812 83.074219 C 28.324219 83.535156 28.785156 83.828125 29.246094 83.828125 C 29.394531 83.828125 29.5625 83.804688 29.707031 83.730469 Z M 91.761719 58.464844 L 97.507812 56.113281 C 98.140625 55.871094 98.429688 55.144531 98.164062 54.539062 C 97.921875 53.90625 97.195312 53.617188 96.585938 53.882812 L 90.839844 56.234375 C 90.207031 56.476562 89.917969 57.203125 90.183594 57.8125 C 90.378906 58.273438 90.839844 58.5625 91.300781 58.5625 C 91.46875 58.539062 91.613281 58.515625 91.761719 58.464844 Z M 75.945312 41.589844 L 78.320312 35.941406 C 78.589844 35.335938 78.296875 34.605469 77.667969 34.363281 C 77.035156 34.097656 76.332031 34.390625 76.066406 35.019531 L 73.6875 40.667969 C 73.421875 41.273438 73.710938 42.003906 74.34375 42.246094 C 74.488281 42.316406 74.660156 42.339844 74.804688 42.339844 C 75.289062 42.316406 75.75 42.050781 75.945312 41.589844 Z M 50.230469 102.617188 L 52.609375 96.96875 C 52.875 96.363281 52.582031 95.636719 51.953125 95.394531 C 51.324219 95.125 50.617188 95.417969 50.351562 96.046875 L 47.976562 101.699219 C 47.707031 102.304688 48 103.03125 48.628906 103.273438 C 48.777344 103.347656 48.945312 103.371094 49.089844 103.371094 C 49.574219 103.371094 50.035156 103.078125 50.230469 102.617188 Z M 36.136719 57.785156 C 36.378906 57.15625 36.089844 56.453125 35.480469 56.210938 L 29.734375 53.859375 C 29.101562 53.617188 28.398438 53.90625 28.15625 54.511719 C 27.914062 55.144531 28.203125 55.847656 28.8125 56.089844 L 34.558594 58.441406 C 34.707031 58.515625 34.875 58.539062 35.019531 58.539062 C 35.480469 58.539062 35.941406 58.246094 36.136719 57.785156 Z M 98.1875 83.074219 C 98.429688 82.445312 98.140625 81.742188 97.535156 81.5 L 91.761719 79.148438 C 91.128906 78.90625 90.425781 79.195312 90.183594 79.800781 C 89.941406 80.433594 90.230469 81.136719 90.839844 81.378906 L 96.585938 83.730469 C 96.734375 83.804688 96.902344 83.828125 97.046875 83.828125 C 97.535156 83.828125 97.996094 83.535156 98.1875 83.074219 Z M 98.1875 83.074219 " fill-opacity="1" fill-rule="nonzero"/></g><g fill="#000000" fill-opacity="1"><g transform="translate(107.936939, 84.826192)"><g><path d="M 18.015625 0.296875 C 17.253906 0.296875 16.640625 0.0664062 16.171875 -0.390625 C 15.710938 -0.847656 15.484375 -1.460938 15.484375 -2.234375 L 15.484375 -38.265625 L 2.53125 -38.265625 C 1.8125 -38.265625 1.25 -38.441406 0.84375 -38.796875 C 0.4375 -39.160156 0.234375 -39.6875 0.234375 -40.375 C 0.234375 -41.050781 0.4375 -41.566406 0.84375 -41.921875 C 1.25 -42.285156 1.8125 -42.46875 2.53125 -42.46875 L 33.4375 -42.46875 C 34.15625 -42.46875 34.71875 -42.285156 35.125 -41.921875 C 35.53125 -41.566406 35.734375 -41.050781 35.734375 -40.375 C 35.734375 -39.6875 35.53125 -39.160156 35.125 -38.796875 C 34.71875 -38.441406 34.15625 -38.265625 33.4375 -38.265625 L 20.484375 -38.265625 L 20.484375 -2.234375 C 20.484375 -1.460938 20.257812 -0.847656 19.8125 -0.390625 C 19.375 0.0664062 18.773438 0.296875 18.015625 0.296875 Z M 18.015625 0.296875 "/></g></g></g><g fill="#000000" fill-opacity="1"><g transform="translate(142.515737, 84.826192)"><g><path d="M 16.515625 -30.0625 C 23.859375 -30.0625 27.53125 -26.207031 27.53125 -18.5 L 27.53125 -2.109375 C 27.53125 -1.390625 27.316406 -0.804688 26.890625 -0.359375 C 26.472656 0.078125 25.90625 0.296875 25.1875 0.296875 C 24.457031 0.296875 23.875 0.078125 23.4375 -0.359375 C 23 -0.804688 22.78125 -1.390625 22.78125 -2.109375 L 22.78125 -5 C 22.007812 -3.269531 20.84375 -1.929688 19.28125 -0.984375 C 17.71875 -0.046875 15.910156 0.421875 13.859375 0.421875 C 11.972656 0.421875 10.234375 0.0390625 8.640625 -0.71875 C 7.054688 -1.488281 5.800781 -2.554688 4.875 -3.921875 C 3.957031 -5.285156 3.5 -6.789062 3.5 -8.4375 C 3.5 -10.644531 4.0625 -12.359375 5.1875 -13.578125 C 6.3125 -14.804688 8.15625 -15.691406 10.71875 -16.234375 C 13.289062 -16.773438 16.867188 -17.046875 21.453125 -17.046875 L 22.78125 -17.046875 L 22.78125 -19.03125 C 22.78125 -21.445312 22.285156 -23.21875 21.296875 -24.34375 C 20.316406 -25.46875 18.722656 -26.03125 16.515625 -26.03125 C 13.773438 -26.03125 11 -25.285156 8.1875 -23.796875 C 7.101562 -23.117188 6.34375 -22.78125 5.90625 -22.78125 C 5.425781 -22.78125 5.023438 -22.957031 4.703125 -23.3125 C 4.378906 -23.675781 4.21875 -24.140625 4.21875 -24.703125 C 4.21875 -25.265625 4.382812 -25.753906 4.71875 -26.171875 C 5.0625 -26.597656 5.617188 -27.03125 6.390625 -27.46875 C 7.796875 -28.269531 9.390625 -28.898438 11.171875 -29.359375 C 12.960938 -29.828125 14.742188 -30.0625 16.515625 -30.0625 Z M 14.515625 -3.4375 C 16.929688 -3.4375 18.910156 -4.25 20.453125 -5.875 C 22.003906 -7.5 22.78125 -9.597656 22.78125 -12.171875 L 22.78125 -13.921875 L 21.6875 -13.921875 C 18.15625 -13.921875 15.460938 -13.769531 13.609375 -13.46875 C 11.765625 -13.164062 10.453125 -12.660156 9.671875 -11.953125 C 8.890625 -11.253906 8.5 -10.222656 8.5 -8.859375 C 8.5 -7.285156 9.066406 -5.988281 10.203125 -4.96875 C 11.347656 -3.945312 12.785156 -3.4375 14.515625 -3.4375 Z M 14.515625 -3.4375 "/></g></g></g><g fill="#000000" fill-opacity="1"><g transform="translate(172.99808, 84.826192)"><g><path d="M 27.953125 -3.859375 C 28.597656 -3.253906 28.921875 -2.609375 28.921875 -1.921875 C 28.921875 -1.328125 28.707031 -0.804688 28.28125 -0.359375 C 27.863281 0.078125 27.351562 0.296875 26.75 0.296875 C 26.226562 0.296875 25.6875 0.0546875 25.125 -0.421875 L 9.40625 -13.984375 L 9.40625 -2.109375 C 9.40625 -1.347656 9.171875 -0.753906 8.703125 -0.328125 C 8.242188 0.0859375 7.671875 0.296875 6.984375 0.296875 C 6.265625 0.296875 5.671875 0.0859375 5.203125 -0.328125 C 4.742188 -0.753906 4.515625 -1.347656 4.515625 -2.109375 L 4.515625 -40.375 C 4.515625 -41.132812 4.742188 -41.722656 5.203125 -42.140625 C 5.671875 -42.566406 6.265625 -42.78125 6.984375 -42.78125 C 7.671875 -42.78125 8.242188 -42.566406 8.703125 -42.140625 C 9.171875 -41.722656 9.40625 -41.132812 9.40625 -40.375 L 9.40625 -15.90625 L 23.796875 -29.09375 C 24.273438 -29.582031 24.816406 -29.828125 25.421875 -29.828125 C 26.023438 -29.828125 26.546875 -29.601562 26.984375 -29.15625 C 27.429688 -28.71875 27.65625 -28.195312 27.65625 -27.59375 C 27.65625 -26.90625 27.375 -26.300781 26.8125 -25.78125 L 14.9375 -15.1875 Z M 27.953125 -3.859375 "/></g></g></g><g fill="#000000" fill-opacity="1"><g transform="translate(201.673159, 84.826192)"><g><path d="M 27.234375 -6.8125 C 27.671875 -6.8125 28.050781 -6.628906 28.375 -6.265625 C 28.695312 -5.898438 28.859375 -5.4375 28.859375 -4.875 C 28.859375 -3.875 28.15625 -2.953125 26.75 -2.109375 C 25.300781 -1.265625 23.773438 -0.628906 22.171875 -0.203125 C 20.566406 0.210938 19 0.421875 17.46875 0.421875 C 12.9375 0.421875 9.351562 -0.921875 6.71875 -3.609375 C 4.082031 -6.304688 2.765625 -10.023438 2.765625 -14.765625 C 2.765625 -17.773438 3.347656 -20.429688 4.515625 -22.734375 C 5.679688 -25.046875 7.316406 -26.84375 9.421875 -28.125 C 11.535156 -29.414062 13.9375 -30.0625 16.625 -30.0625 C 20.445312 -30.0625 23.476562 -28.816406 25.71875 -26.328125 C 27.96875 -23.835938 29.09375 -20.460938 29.09375 -16.203125 C 29.09375 -15.398438 28.929688 -14.816406 28.609375 -14.453125 C 28.296875 -14.097656 27.773438 -13.921875 27.046875 -13.921875 L 7.65625 -13.921875 C 8.007812 -7.015625 11.28125 -3.5625 17.46875 -3.5625 C 19.039062 -3.5625 20.390625 -3.769531 21.515625 -4.1875 C 22.640625 -4.601562 23.84375 -5.175781 25.125 -5.90625 C 26.164062 -6.507812 26.867188 -6.8125 27.234375 -6.8125 Z M 16.6875 -26.265625 C 14.113281 -26.265625 12.050781 -25.460938 10.5 -23.859375 C 8.957031 -22.253906 8.046875 -19.984375 7.765625 -17.046875 L 24.828125 -17.046875 C 24.742188 -20.023438 24 -22.304688 22.59375 -23.890625 C 21.1875 -25.472656 19.21875 -26.265625 16.6875 -26.265625 Z M 16.6875 -26.265625 "/></g></g></g><g fill="#000000" fill-opacity="1"><g transform="translate(231.974766, 84.826192)"><g><path d="M 23.25 0.484375 C 19.238281 0.484375 15.765625 -0.390625 12.828125 -2.140625 C 9.898438 -3.890625 7.640625 -6.398438 6.046875 -9.671875 C 4.460938 -12.941406 3.671875 -16.804688 3.671875 -21.265625 C 3.671875 -25.679688 4.460938 -29.523438 6.046875 -32.796875 C 7.640625 -36.078125 9.898438 -38.585938 12.828125 -40.328125 C 15.765625 -42.078125 19.238281 -42.953125 23.25 -42.953125 C 25.945312 -42.953125 28.488281 -42.519531 30.875 -41.65625 C 33.269531 -40.800781 35.347656 -39.566406 37.109375 -37.953125 C 37.753906 -37.347656 38.078125 -36.644531 38.078125 -35.84375 C 38.078125 -35.28125 37.914062 -34.785156 37.59375 -34.359375 C 37.269531 -33.941406 36.890625 -33.734375 36.453125 -33.734375 C 35.972656 -33.734375 35.390625 -33.957031 34.703125 -34.40625 C 32.648438 -36.007812 30.789062 -37.128906 29.125 -37.765625 C 27.457031 -38.410156 25.539062 -38.734375 23.375 -38.734375 C 18.71875 -38.734375 15.132812 -37.21875 12.625 -34.1875 C 10.113281 -31.15625 8.859375 -26.847656 8.859375 -21.265625 C 8.859375 -15.640625 10.113281 -11.3125 12.625 -8.28125 C 15.132812 -5.25 18.71875 -3.734375 23.375 -3.734375 C 25.5 -3.734375 27.40625 -4.050781 29.09375 -4.6875 C 30.78125 -5.332031 32.648438 -6.460938 34.703125 -8.078125 C 35.390625 -8.515625 35.972656 -8.734375 36.453125 -8.734375 C 36.890625 -8.734375 37.269531 -8.53125 37.59375 -8.125 C 37.914062 -7.726562 38.078125 -7.226562 38.078125 -6.625 C 38.078125 -5.820312 37.753906 -5.117188 37.109375 -4.515625 C 35.347656 -2.910156 33.269531 -1.675781 30.875 -0.8125 C 28.488281 0.0507812 25.945312 0.484375 23.25 0.484375 Z M 23.25 0.484375 "/></g></g></g><g fill="#000000" fill-opacity="1"><g transform="translate(271.312694, 84.826192)"><g><path d="M 16.515625 -30.0625 C 23.859375 -30.0625 27.53125 -26.207031 27.53125 -18.5 L 27.53125 -2.109375 C 27.53125 -1.390625 27.316406 -0.804688 26.890625 -0.359375 C 26.472656 0.078125 25.90625 0.296875 25.1875 0.296875 C 24.457031 0.296875 23.875 0.078125 23.4375 -0.359375 C 23 -0.804688 22.78125 -1.390625 22.78125 -2.109375 L 22.78125 -5 C 22.007812 -3.269531 20.84375 -1.929688 19.28125 -0.984375 C 17.71875 -0.046875 15.910156 0.421875 13.859375 0.421875 C 11.972656 0.421875 10.234375 0.0390625 8.640625 -0.71875 C 7.054688 -1.488281 5.800781 -2.554688 4.875 -3.921875 C 3.957031 -5.285156 3.5 -6.789062 3.5 -8.4375 C 3.5 -10.644531 4.0625 -12.359375 5.1875 -13.578125 C 6.3125 -14.804688 8.15625 -15.691406 10.71875 -16.234375 C 13.289062 -16.773438 16.867188 -17.046875 21.453125 -17.046875 L 22.78125 -17.046875 L 22.78125 -19.03125 C 22.78125 -21.445312 22.285156 -23.21875 21.296875 -24.34375 C 20.316406 -25.46875 18.722656 -26.03125 16.515625 -26.03125 C 13.773438 -26.03125 11 -25.285156 8.1875 -23.796875 C 7.101562 -23.117188 6.34375 -22.78125 5.90625 -22.78125 C 5.425781 -22.78125 5.023438 -22.957031 4.703125 -23.3125 C 4.378906 -23.675781 4.21875 -24.140625 4.21875 -24.703125 C 4.21875 -25.265625 4.382812 -25.753906 4.71875 -26.171875 C 5.0625 -26.597656 5.617188 -27.03125 6.390625 -27.46875 C 7.796875 -28.269531 9.390625 -28.898438 11.171875 -29.359375 C 12.960938 -29.828125 14.742188 -30.0625 16.515625 -30.0625 Z M 14.515625 -3.4375 C 16.929688 -3.4375 18.910156 -4.25 20.453125 -5.875 C 22.003906 -7.5 22.78125 -9.597656 22.78125 -12.171875 L 22.78125 -13.921875 L 21.6875 -13.921875 C 18.15625 -13.921875 15.460938 -13.769531 13.609375 -13.46875 C 11.765625 -13.164062 10.453125 -12.660156 9.671875 -11.953125 C 8.890625 -11.253906 8.5 -10.222656 8.5 -8.859375 C 8.5 -7.285156 9.066406 -5.988281 10.203125 -4.96875 C 11.347656 -3.945312 12.785156 -3.4375 14.515625 -3.4375 Z M 14.515625 -3.4375 "/></g></g></g><g fill="#000000" fill-opacity="1"><g transform="translate(301.795034, 84.826192)"><g><path d="M 19.03125 -29.9375 C 20.71875 -30.0625 21.5625 -29.378906 21.5625 -27.890625 C 21.5625 -27.253906 21.378906 -26.742188 21.015625 -26.359375 C 20.660156 -25.972656 20.039062 -25.742188 19.15625 -25.671875 L 17.359375 -25.484375 C 14.660156 -25.242188 12.660156 -24.289062 11.359375 -22.625 C 10.054688 -20.957031 9.40625 -19 9.40625 -16.75 L 9.40625 -2.109375 C 9.40625 -1.304688 9.179688 -0.703125 8.734375 -0.296875 C 8.296875 0.0976562 7.710938 0.296875 6.984375 0.296875 C 6.265625 0.296875 5.671875 0.0859375 5.203125 -0.328125 C 4.742188 -0.753906 4.515625 -1.347656 4.515625 -2.109375 L 4.515625 -27.53125 C 4.515625 -28.289062 4.753906 -28.878906 5.234375 -29.296875 C 5.722656 -29.722656 6.304688 -29.9375 6.984375 -29.9375 C 7.628906 -29.9375 8.171875 -29.722656 8.609375 -29.296875 C 9.054688 -28.878906 9.28125 -28.3125 9.28125 -27.59375 L 9.28125 -24.21875 C 10.125 -25.988281 11.316406 -27.332031 12.859375 -28.25 C 14.410156 -29.175781 16.191406 -29.722656 18.203125 -29.890625 Z M 19.03125 -29.9375 "/></g></g></g><g fill="#000000" fill-opacity="1"><g transform="translate(321.61452, 84.826192)"><g><path d="M 27.234375 -6.8125 C 27.671875 -6.8125 28.050781 -6.628906 28.375 -6.265625 C 28.695312 -5.898438 28.859375 -5.4375 28.859375 -4.875 C 28.859375 -3.875 28.15625 -2.953125 26.75 -2.109375 C 25.300781 -1.265625 23.773438 -0.628906 22.171875 -0.203125 C 20.566406 0.210938 19 0.421875 17.46875 0.421875 C 12.9375 0.421875 9.351562 -0.921875 6.71875 -3.609375 C 4.082031 -6.304688 2.765625 -10.023438 2.765625 -14.765625 C 2.765625 -17.773438 3.347656 -20.429688 4.515625 -22.734375 C 5.679688 -25.046875 7.316406 -26.84375 9.421875 -28.125 C 11.535156 -29.414062 13.9375 -30.0625 16.625 -30.0625 C 20.445312 -30.0625 23.476562 -28.816406 25.71875 -26.328125 C 27.96875 -23.835938 29.09375 -20.460938 29.09375 -16.203125 C 29.09375 -15.398438 28.929688 -14.816406 28.609375 -14.453125 C 28.296875 -14.097656 27.773438 -13.921875 27.046875 -13.921875 L 7.65625 -13.921875 C 8.007812 -7.015625 11.28125 -3.5625 17.46875 -3.5625 C 19.039062 -3.5625 20.390625 -3.769531 21.515625 -4.1875 C 22.640625 -4.601562 23.84375 -5.175781 25.125 -5.90625 C 26.164062 -6.507812 26.867188 -6.8125 27.234375 -6.8125 Z M 16.6875 -26.265625 C 14.113281 -26.265625 12.050781 -25.460938 10.5 -23.859375 C 8.957031 -22.253906 8.046875 -19.984375 7.765625 -17.046875 L 24.828125 -17.046875 C 24.742188 -20.023438 24 -22.304688 22.59375 -23.890625 C 21.1875 -25.472656 19.21875 -26.265625 16.6875 -26.265625 Z M 16.6875 -26.265625 "/></g></g></g></svg>