<svg xmlns="http://www.w3.org/2000/svg" xmlns:xlink="http://www.w3.org/1999/xlink" width="500" zoomAndPan="magnify" viewBox="0 0 375 374.999991" height="500" preserveAspectRatio="xMidYMid meet" version="1.0"><defs><clipPath id="3b54cdae5d"><path d="M 2.4375 5.445312 L 372.1875 5.445312 L 372.1875 369.195312 L 2.4375 369.195312 Z M 2.4375 5.445312 " clip-rule="nonzero"/></clipPath></defs><path fill="#ffd773" d="M 283.28125 187.320312 C 283.28125 188.867188 283.242188 190.414062 283.167969 191.957031 C 283.089844 193.5 282.972656 195.042969 282.820312 196.582031 C 282.667969 198.121094 282.472656 199.652344 282.242188 201.183594 C 282.011719 202.710938 281.746094 204.234375 281.4375 205.753906 C 281.132812 207.269531 280.789062 208.777344 280.40625 210.277344 C 280.023438 211.777344 279.605469 213.265625 279.148438 214.746094 C 278.695312 216.226562 278.203125 217.691406 277.671875 219.148438 C 277.144531 220.605469 276.578125 222.046875 275.976562 223.476562 C 275.375 224.902344 274.738281 226.316406 274.066406 227.714844 C 273.398438 229.113281 272.691406 230.492188 271.949219 231.855469 C 271.210938 233.21875 270.4375 234.566406 269.628906 235.890625 C 268.820312 237.21875 267.980469 238.523438 267.109375 239.808594 C 266.234375 241.09375 265.332031 242.359375 264.394531 243.597656 C 263.460938 244.839844 262.496094 246.058594 261.5 247.253906 C 260.5 248.449219 259.476562 249.621094 258.421875 250.765625 C 257.367188 251.910156 256.285156 253.03125 255.171875 254.125 C 254.0625 255.21875 252.925781 256.285156 251.761719 257.324219 C 250.597656 258.359375 249.410156 259.371094 248.195312 260.351562 C 246.980469 261.332031 245.742188 262.28125 244.480469 263.203125 C 243.21875 264.125 241.9375 265.015625 240.628906 265.875 C 239.324219 266.734375 238 267.558594 236.652344 268.355469 C 235.304688 269.148438 233.9375 269.910156 232.554688 270.640625 C 231.167969 271.371094 229.765625 272.0625 228.34375 272.726562 C 226.925781 273.386719 225.488281 274.011719 224.039062 274.605469 C 222.589844 275.195312 221.125 275.753906 219.644531 276.273438 C 218.164062 276.792969 216.675781 277.277344 215.171875 277.726562 C 213.667969 278.175781 212.15625 278.589844 210.632812 278.964844 C 209.109375 279.339844 207.578125 279.679688 206.035156 279.980469 C 204.496094 280.28125 202.949219 280.546875 201.394531 280.773438 C 199.839844 281 198.28125 281.191406 196.71875 281.339844 C 195.15625 281.492188 193.589844 281.605469 192.023438 281.683594 C 190.453125 281.757812 188.882812 281.796875 187.3125 281.796875 C 185.742188 281.796875 184.171875 281.757812 182.605469 281.683594 C 181.035156 281.605469 179.46875 281.492188 177.90625 281.339844 C 176.34375 281.191406 174.785156 281 173.230469 280.773438 C 171.679688 280.546875 170.132812 280.28125 168.589844 279.980469 C 167.050781 279.679688 165.519531 279.339844 163.996094 278.964844 C 162.472656 278.589844 160.957031 278.175781 159.457031 277.726562 C 157.953125 277.277344 156.460938 276.792969 154.984375 276.273438 C 153.503906 275.753906 152.039062 275.195312 150.585938 274.605469 C 149.136719 274.011719 147.703125 273.386719 146.28125 272.726562 C 144.863281 272.0625 143.460938 271.371094 142.074219 270.640625 C 140.6875 269.910156 139.324219 269.148438 137.976562 268.355469 C 136.628906 267.558594 135.300781 266.734375 133.996094 265.875 C 132.691406 265.015625 131.40625 264.125 130.144531 263.203125 C 128.882812 262.28125 127.644531 261.332031 126.429688 260.351562 C 125.21875 259.371094 124.027344 258.359375 122.863281 257.324219 C 121.699219 256.285156 120.5625 255.21875 119.453125 254.125 C 118.34375 253.03125 117.261719 251.914062 116.207031 250.765625 C 115.152344 249.621094 114.125 248.449219 113.128906 247.253906 C 112.132812 246.058594 111.167969 244.839844 110.230469 243.601562 C 109.296875 242.359375 108.390625 241.09375 107.519531 239.808594 C 106.644531 238.523438 105.804688 237.21875 105 235.890625 C 104.191406 234.566406 103.417969 233.21875 102.675781 231.855469 C 101.9375 230.492188 101.230469 229.113281 100.558594 227.714844 C 99.886719 226.316406 99.25 224.902344 98.648438 223.476562 C 98.050781 222.046875 97.484375 220.605469 96.953125 219.148438 C 96.425781 217.691406 95.933594 216.226562 95.476562 214.746094 C 95.019531 213.265625 94.601562 211.777344 94.222656 210.277344 C 93.839844 208.777344 93.496094 207.269531 93.1875 205.753906 C 92.882812 204.234375 92.613281 202.710938 92.382812 201.183594 C 92.152344 199.652344 91.960938 198.121094 91.808594 196.582031 C 91.652344 195.042969 91.539062 193.5 91.460938 191.957031 C 91.382812 190.414062 91.34375 188.867188 91.34375 187.320312 C 91.34375 185.773438 91.382812 184.230469 91.460938 182.683594 C 91.539062 181.140625 91.652344 179.597656 91.808594 178.0625 C 91.960938 176.523438 92.152344 174.988281 92.382812 173.457031 C 92.613281 171.929688 92.882812 170.40625 93.1875 168.890625 C 93.496094 167.375 93.839844 165.863281 94.222656 164.363281 C 94.601562 162.867188 95.019531 161.375 95.476562 159.894531 C 95.933594 158.417969 96.425781 156.949219 96.953125 155.492188 C 97.484375 154.039062 98.050781 152.59375 98.648438 151.167969 C 99.25 149.738281 99.886719 148.324219 100.558594 146.925781 C 101.230469 145.53125 101.9375 144.148438 102.675781 142.785156 C 103.417969 141.421875 104.191406 140.078125 105 138.75 C 105.804688 137.425781 106.644531 136.117188 107.519531 134.832031 C 108.390625 133.546875 109.296875 132.285156 110.230469 131.042969 C 111.167969 129.800781 112.132812 128.582031 113.128906 127.386719 C 114.125 126.191406 115.152344 125.019531 116.207031 123.875 C 117.261719 122.730469 118.34375 121.609375 119.453125 120.515625 C 120.5625 119.421875 121.699219 118.359375 122.863281 117.320312 C 124.027344 116.28125 125.21875 115.269531 126.429688 114.289062 C 127.644531 113.308594 128.882812 112.359375 130.144531 111.4375 C 131.40625 110.515625 132.691406 109.625 133.996094 108.765625 C 135.300781 107.910156 136.628906 107.082031 137.976562 106.285156 C 139.324219 105.492188 140.6875 104.730469 142.074219 104 C 143.460938 103.273438 144.863281 102.578125 146.28125 101.917969 C 147.703125 101.253906 149.136719 100.628906 150.585938 100.035156 C 152.039062 99.445312 153.503906 98.890625 154.984375 98.367188 C 156.460938 97.847656 157.953125 97.363281 159.457031 96.914062 C 160.957031 96.464844 162.472656 96.050781 163.996094 95.675781 C 165.519531 95.300781 167.050781 94.960938 168.589844 94.660156 C 170.132812 94.359375 171.679688 94.09375 173.230469 93.867188 C 174.785156 93.640625 176.34375 93.453125 177.90625 93.300781 C 179.46875 93.148438 181.035156 93.035156 182.605469 92.960938 C 184.171875 92.882812 185.742188 92.84375 187.3125 92.84375 C 188.882812 92.84375 190.453125 92.882812 192.023438 92.960938 C 193.589844 93.035156 195.15625 93.148438 196.71875 93.300781 C 198.28125 93.453125 199.839844 93.640625 201.394531 93.867188 C 202.949219 94.09375 204.496094 94.359375 206.035156 94.660156 C 207.578125 94.960938 209.109375 95.300781 210.632812 95.675781 C 212.15625 96.050781 213.667969 96.464844 215.171875 96.914062 C 216.675781 97.363281 218.164062 97.847656 219.644531 98.367188 C 221.125 98.890625 222.589844 99.445312 224.039062 100.035156 C 225.488281 100.628906 226.925781 101.253906 228.34375 101.917969 C 229.765625 102.578125 231.167969 103.273438 232.554688 104 C 233.9375 104.730469 235.304688 105.492188 236.652344 106.285156 C 238 107.082031 239.324219 107.910156 240.628906 108.765625 C 241.9375 109.625 243.21875 110.515625 244.480469 111.4375 C 245.742188 112.359375 246.980469 113.308594 248.195312 114.289062 C 249.410156 115.269531 250.597656 116.28125 251.761719 117.320312 C 252.925781 118.359375 254.0625 119.421875 255.171875 120.515625 C 256.285156 121.609375 257.367188 122.730469 258.421875 123.875 C 259.476562 125.019531 260.5 126.191406 261.5 127.386719 C 262.496094 128.582031 263.460938 129.800781 264.394531 131.042969 C 265.332031 132.285156 266.234375 133.546875 267.109375 134.832031 C 267.980469 136.117188 268.820312 137.425781 269.628906 138.75 C 270.4375 140.078125 271.210938 141.421875 271.949219 142.785156 C 272.691406 144.148438 273.398438 145.53125 274.066406 146.925781 C 274.738281 148.324219 275.375 149.738281 275.976562 151.167969 C 276.578125 152.59375 277.144531 154.039062 277.671875 155.492188 C 278.203125 156.949219 278.695312 158.417969 279.148438 159.894531 C 279.605469 161.375 280.023438 162.867188 280.40625 164.363281 C 280.789062 165.863281 281.132812 167.375 281.4375 168.890625 C 281.746094 170.40625 282.011719 171.929688 282.242188 173.457031 C 282.472656 174.988281 282.667969 176.523438 282.820312 178.0625 C 282.972656 179.597656 283.089844 181.140625 283.167969 182.683594 C 283.242188 184.230469 283.28125 185.773438 283.28125 187.320312 Z M 283.28125 187.320312 " fill-opacity="1" fill-rule="nonzero"/><g clip-path="url(#3b54cdae5d)"><path fill="#d1a12a" d="M 187.3125 69.425781 C 184.523438 69.425781 182.332031 67.234375 182.332031 64.441406 L 182.332031 10.429688 C 182.332031 7.636719 184.523438 5.445312 187.3125 5.445312 C 190.105469 5.445312 192.296875 7.636719 192.296875 10.429688 L 192.296875 64.441406 C 192.296875 67.132812 190.003906 69.425781 187.3125 69.425781 Z M 192.296875 364.210938 L 192.296875 310.199219 C 192.296875 307.40625 190.105469 305.214844 187.3125 305.214844 C 184.523438 305.214844 182.332031 307.40625 182.332031 310.199219 L 182.332031 364.210938 C 182.332031 367.003906 184.523438 369.195312 187.3125 369.195312 C 190.105469 369.195312 192.296875 367.003906 192.296875 364.210938 Z M 67.328125 187.320312 C 67.328125 184.53125 65.136719 182.335938 62.34375 182.335938 L 7.535156 182.335938 C 4.742188 182.335938 2.550781 184.53125 2.550781 187.320312 C 2.550781 190.109375 4.742188 192.304688 7.535156 192.304688 L 62.34375 192.304688 C 65.136719 192.304688 67.328125 190.109375 67.328125 187.320312 Z M 372.074219 187.320312 C 372.074219 184.53125 369.882812 182.335938 367.09375 182.335938 L 312.28125 182.335938 C 309.492188 182.335938 307.300781 184.53125 307.300781 187.320312 C 307.300781 190.109375 309.492188 192.304688 312.28125 192.304688 L 367.09375 192.304688 C 369.882812 192.304688 372.074219 190.109375 372.074219 187.320312 Z M 102.507812 103.90625 C 104.398438 101.914062 104.398438 98.824219 102.40625 96.832031 L 63.640625 58.664062 C 61.648438 56.769531 58.558594 56.769531 56.566406 58.761719 C 54.671875 60.753906 54.671875 63.84375 56.664062 65.839844 L 95.429688 104.007812 C 96.425781 105.003906 97.625 105.402344 98.917969 105.402344 C 100.214844 105.402344 101.507812 104.902344 102.507812 103.90625 Z M 317.960938 315.980469 C 319.855469 313.984375 319.855469 310.894531 317.863281 308.902344 L 279.097656 270.734375 C 277.101562 268.839844 274.015625 268.839844 272.019531 270.832031 C 270.128906 272.828125 270.128906 275.917969 272.121094 277.910156 L 310.886719 316.078125 C 311.882812 317.074219 313.078125 317.472656 314.375 317.472656 C 315.671875 317.472656 316.964844 316.976562 317.960938 315.980469 Z M 63.640625 315.980469 L 102.40625 277.808594 C 104.398438 275.917969 104.398438 272.726562 102.507812 270.734375 C 100.613281 268.742188 97.425781 268.742188 95.429688 270.632812 L 56.664062 308.902344 C 54.671875 310.796875 54.671875 313.984375 56.566406 315.980469 C 57.5625 316.976562 58.855469 317.472656 60.152344 317.472656 C 61.449219 317.472656 62.644531 316.976562 63.640625 315.980469 Z M 279.097656 104.007812 L 317.863281 65.839844 C 319.855469 63.945312 319.855469 60.753906 317.960938 58.761719 C 316.070312 56.769531 312.878906 56.769531 310.886719 58.664062 L 272.121094 96.832031 C 270.128906 98.726562 270.128906 101.914062 272.019531 103.90625 C 273.019531 104.902344 274.3125 105.402344 275.609375 105.402344 C 276.902344 105.402344 278.199219 104.902344 279.097656 104.007812 Z M 141.273438 78.097656 C 143.765625 77 144.960938 74.109375 143.964844 71.617188 L 134.195312 48.398438 C 133.101562 45.90625 130.210938 44.710938 127.621094 45.707031 C 125.128906 46.804688 123.933594 49.695312 124.929688 52.183594 L 134.695312 75.40625 C 135.492188 77.300781 137.386719 78.496094 139.28125 78.496094 C 140.078125 78.496094 140.675781 78.394531 141.273438 78.097656 Z M 246.90625 329.035156 C 249.398438 327.9375 250.59375 325.046875 249.597656 322.554688 L 239.832031 299.335938 C 238.734375 296.84375 235.847656 295.648438 233.253906 296.644531 C 230.761719 297.742188 229.566406 300.632812 230.5625 303.121094 L 240.332031 326.34375 C 241.128906 328.238281 243.019531 329.433594 244.914062 329.433594 C 245.613281 329.433594 246.308594 329.234375 246.90625 329.035156 Z M 49.886719 248.710938 L 73.507812 239.042969 C 76.097656 238.046875 77.292969 235.058594 76.195312 232.566406 C 75.199219 229.972656 72.210938 228.777344 69.71875 229.875 L 46.101562 239.542969 C 43.511719 240.539062 42.3125 243.527344 43.410156 246.019531 C 44.207031 247.914062 46.101562 249.109375 47.996094 249.109375 C 48.59375 249.109375 49.289062 249.007812 49.886719 248.710938 Z M 304.808594 144.867188 L 328.425781 135.199219 C 331.015625 134.203125 332.214844 131.214844 331.117188 128.722656 C 330.121094 126.132812 327.128906 124.933594 324.640625 126.03125 L 301.019531 135.699219 C 298.429688 136.695312 297.234375 139.683594 298.332031 142.175781 C 299.128906 144.070312 301.019531 145.265625 302.914062 145.265625 C 303.613281 145.164062 304.210938 145.066406 304.808594 144.867188 Z M 239.832031 75.503906 L 249.597656 52.285156 C 250.695312 49.792969 249.5 46.804688 246.90625 45.808594 C 244.316406 44.710938 241.425781 45.90625 240.332031 48.496094 L 230.5625 71.71875 C 229.46875 74.210938 230.664062 77.199219 233.253906 78.195312 C 233.851562 78.496094 234.550781 78.59375 235.148438 78.59375 C 237.140625 78.496094 239.035156 77.398438 239.832031 75.503906 Z M 134.195312 326.34375 L 143.964844 303.121094 C 145.058594 300.632812 143.863281 297.640625 141.273438 296.644531 C 138.679688 295.550781 135.792969 296.746094 134.695312 299.335938 L 124.929688 322.554688 C 123.832031 325.046875 125.027344 328.039062 127.621094 329.035156 C 128.21875 329.332031 128.914062 329.433594 129.511719 329.433594 C 131.507812 329.433594 133.398438 328.238281 134.195312 326.34375 Z M 76.296875 142.078125 C 77.292969 139.484375 76.097656 136.59375 73.605469 135.597656 L 49.988281 125.933594 C 47.398438 124.933594 44.507812 126.132812 43.511719 128.621094 C 42.511719 131.214844 43.710938 134.105469 46.199219 135.101562 L 69.820312 144.765625 C 70.417969 145.066406 71.113281 145.164062 71.710938 145.164062 C 73.605469 145.164062 75.5 143.96875 76.296875 142.078125 Z M 331.214844 246.019531 C 332.214844 243.429688 331.015625 240.539062 328.527344 239.542969 L 304.808594 229.875 C 302.214844 228.878906 299.328125 230.074219 298.332031 232.566406 C 297.332031 235.15625 298.53125 238.046875 301.019531 239.042969 L 324.640625 248.710938 C 325.238281 249.007812 325.933594 249.109375 326.53125 249.109375 C 328.527344 249.109375 330.417969 247.914062 331.214844 246.019531 Z M 331.214844 246.019531 " fill-opacity="1" fill-rule="nonzero"/></g></svg>